<?xml version="1.0" encoding="UTF-8"?>
<svg version="1.1" xmlns="http://www.w3.org/2000/svg" width="500" height="500">
<path d="M0 0 C1.86337255 0.00112947 3.72674689 0.00049267 5.59011841 -0.00177002 C10.62883841 -0.0029142 15.66717487 0.0205472 20.70580602 0.04852581 C25.97885377 0.07358883 31.25191103 0.07588533 36.52500916 0.08062744 C46.5014719 0.09304282 56.4777586 0.125845 66.45414394 0.1660254 C77.81565937 0.21078785 89.17718336 0.23274141 100.53876507 0.25280714 C123.90216155 0.29457887 147.26540195 0.36490298 170.62866211 0.45410156 C170.65551306 2.93333957 170.67542758 5.41228996 170.69116211 7.89160156 C170.69954102 8.59865234 170.70791992 9.30570313 170.71655273 10.03417969 C170.72519799 11.84103716 170.68086222 13.64797759 170.62866211 15.45410156 C168.96624221 17.11652146 166.95436841 16.58271942 164.73321128 16.5953697 C164.02749118 16.59430144 163.32177108 16.59323319 162.59466553 16.59213257 C161.85004885 16.59495385 161.10543217 16.59777513 160.33825135 16.6006819 C157.82404202 16.60906573 155.3098765 16.61036937 152.7956543 16.61181641 C151.00068537 16.6164819 149.20571763 16.62162502 147.41075134 16.62721252 C143.53547018 16.63851511 139.6601968 16.64693887 135.78490448 16.65333176 C129.65892143 16.66398713 123.5329941 16.68422566 117.40704346 16.70645142 C99.98370924 16.76845751 82.56037778 16.82239311 65.13696289 16.85546875 C55.5217433 16.87380227 45.90661647 16.90272369 36.29146504 16.94347346 C31.20015336 16.96456765 26.1089587 16.98000411 21.01760101 16.98228073 C16.22741856 16.98442506 11.43747962 17.00027251 6.64737129 17.02667046 C4.88857172 17.03387355 3.12974268 17.03595953 1.37093163 17.03256798 C-1.02947033 17.02867848 -3.42909258 17.04311044 -5.82940674 17.06210327 C-6.52620395 17.05657358 -7.22300116 17.05104388 -7.94091344 17.04534662 C-12.24057105 17.10411022 -14.99591514 17.74969356 -18.37133789 20.45410156 C-20.85914104 23.83382461 -20.62518916 27.18236473 -20.6320343 31.27940369 C-20.63585985 31.96533035 -20.6396854 32.65125702 -20.64362687 33.35796934 C-20.65394295 35.65563507 -20.64996744 37.95305024 -20.64599609 40.25073242 C-20.65034334 41.89836356 -20.65552653 43.54599267 -20.66148376 45.19361877 C-20.67488353 49.66880427 -20.67545136 54.14390536 -20.67292047 58.61910701 C-20.67185144 62.35429171 -20.67673235 66.08945929 -20.68152589 69.82464033 C-20.6926244 78.63595487 -20.69305651 87.44722678 -20.68701172 96.25854492 C-20.68097029 105.35059319 -20.69328644 114.44248677 -20.71458179 123.53450865 C-20.73219043 131.3392838 -20.73820032 139.14400967 -20.73494405 146.94880396 C-20.73312991 151.61084451 -20.7357804 156.27277471 -20.74965858 160.93479729 C-20.76222037 165.3187113 -20.76030852 169.70238393 -20.7472477 174.08629417 C-20.74487878 175.69514293 -20.74762788 177.30400859 -20.75587082 178.91283798 C-20.76631368 181.10944491 -20.75825825 183.30523822 -20.74555969 185.5018158 C-20.74581131 187.34544409 -20.74581131 187.34544409 -20.746068 189.22631741 C-20.33599996 192.75848918 -19.50121064 194.63442492 -17.37133789 197.45410156 C-13.73124633 199.48783187 -10.51076731 199.71997613 -6.38769531 199.77294922 C-4.61642525 199.80275375 -4.61642525 199.80275375 -2.80937195 199.8331604 C-1.5446254 199.84471161 -0.27987885 199.85626282 1.02319336 199.86816406 C2.32568527 199.88753021 3.62817719 199.90689636 4.97013855 199.92684937 C8.42073561 199.97804675 11.87137155 200.01773832 15.32214355 200.05499268 C18.84824137 200.09511044 22.37417919 200.14616719 25.90014648 200.19628906 C32.80953461 200.29290129 39.71902557 200.37735278 46.62866211 200.45410156 C47.12366211 196.49410156 47.12366211 196.49410156 47.62866211 192.45410156 C48.28866211 192.45410156 48.94866211 192.45410156 49.62866211 192.45410156 C49.62866211 191.79410156 49.62866211 191.13410156 49.62866211 190.45410156 C52.28066277 188.65074112 53.7433405 188.45622524 57.00366211 188.51660156 C61.52236259 189.685231 63.35462183 191.18006128 66.62866211 194.45410156 C66.62866211 195.11410156 66.62866211 195.77410156 66.62866211 196.45410156 C67.24741211 196.76347656 67.86616211 197.07285156 68.50366211 197.39160156 C69.87866211 198.07910156 71.25366211 198.76660156 72.62866211 199.45410156 C72.62866211 200.11410156 72.62866211 200.77410156 72.62866211 201.45410156 C73.28866211 201.45410156 73.94866211 201.45410156 74.62866211 201.45410156 C74.62866211 202.11410156 74.62866211 202.77410156 74.62866211 203.45410156 C75.28866211 203.45410156 75.94866211 203.45410156 76.62866211 203.45410156 C76.62866211 204.11410156 76.62866211 204.77410156 76.62866211 205.45410156 C77.28866211 205.45410156 77.94866211 205.45410156 78.62866211 205.45410156 C80.34021179 207.0746426 81.99863841 208.7515804 83.62866211 210.45410156 C84.53745117 211.35128906 85.44624023 212.24847656 86.38256836 213.17285156 C87.3094043 214.09066406 88.23624023 215.00847656 89.19116211 215.95410156 C90.12057617 216.87191406 91.04999023 217.78972656 92.00756836 218.73535156 C94.62866211 221.45410156 94.62866211 221.45410156 96.84350586 224.23535156 C98.43776544 226.53220655 98.43776544 226.53220655 100.62866211 227.45410156 C100.62866211 228.11410156 100.62866211 228.77410156 100.62866211 229.45410156 C101.28866211 229.45410156 101.94866211 229.45410156 102.62866211 229.45410156 C102.62866211 230.11410156 102.62866211 230.77410156 102.62866211 231.45410156 C103.28866211 231.45410156 103.94866211 231.45410156 104.62866211 231.45410156 C106.64858991 234.76678316 107.63995364 236.86989324 107.56420898 240.78881836 C106.43092351 245.22880135 104.33996129 247.49892608 101.09741211 250.53613281 C100.54629761 251.07638596 99.99518311 251.6166391 99.42736816 252.17326355 C97.67481169 253.88582708 95.90284479 255.5764794 94.12866211 257.26660156 C92.35904937 258.97879679 90.59364647 260.6952044 88.82995605 262.41349792 C87.73366923 263.47866346 86.63312086 264.53946394 85.5279541 265.59541321 C82.7141937 268.24231819 82.7141937 268.24231819 80.62866211 271.45410156 C79.96866211 271.45410156 79.30866211 271.45410156 78.62866211 271.45410156 C78.62866211 272.11410156 78.62866211 272.77410156 78.62866211 273.45410156 C77.96866211 273.45410156 77.30866211 273.45410156 76.62866211 273.45410156 C76.62866211 274.11410156 76.62866211 274.77410156 76.62866211 275.45410156 C75.96866211 275.45410156 75.30866211 275.45410156 74.62866211 275.45410156 C74.62866211 276.11410156 74.62866211 276.77410156 74.62866211 277.45410156 C73.96866211 277.45410156 73.30866211 277.45410156 72.62866211 277.45410156 C72.62866211 278.11410156 72.62866211 278.77410156 72.62866211 279.45410156 C71.96866211 279.45410156 71.30866211 279.45410156 70.62866211 279.45410156 C70.62866211 280.11410156 70.62866211 280.77410156 70.62866211 281.45410156 C69.96866211 281.45410156 69.30866211 281.45410156 68.62866211 281.45410156 C68.62866211 282.11410156 68.62866211 282.77410156 68.62866211 283.45410156 C67.96866211 283.45410156 67.30866211 283.45410156 66.62866211 283.45410156 C66.40178711 284.05222656 66.17491211 284.65035156 65.94116211 285.26660156 C64.20436682 288.16126038 62.71035851 289.08445872 59.62866211 290.45410156 C55.4953861 290.97076106 53.41013379 290.92298457 49.81616211 288.76660156 C47.49023371 286.30776297 46.42823995 284.73237071 45.62866211 281.45410156 C46.09454764 275.24229455 49.74026112 271.08873659 54.04272461 266.87988281 C55.30729492 265.63174805 55.30729492 265.63174805 56.59741211 264.35839844 C57.91225586 263.07545898 57.91225586 263.07545898 59.25366211 261.76660156 C60.99801914 260.05657226 62.74031696 258.34443904 64.48022461 256.62988281 C65.25188965 255.87618408 66.02355469 255.12248535 66.81860352 254.34594727 C68.69114519 252.57513225 68.69114519 252.57513225 69.62866211 250.45410156 C68.75027176 250.45045593 67.87188141 250.4468103 66.96687317 250.4430542 C58.68301564 250.40516494 50.39955143 250.34830168 42.11597157 250.27019882 C37.85740953 250.23071367 33.59905458 250.19853044 29.34033203 250.18310547 C25.22927069 250.16794547 21.11877863 250.13351232 17.00797081 250.08579254 C15.44077189 250.07097183 13.87349169 250.06306015 12.30622292 250.06221771 C10.10815589 250.05984821 7.91166242 250.03277408 5.71386719 250 C4.46366287 249.99111755 3.21345856 249.98223511 1.92536926 249.9730835 C-1.97511492 249.35905236 -3.58709729 248.20160469 -6.37133789 245.45410156 C-8.80078949 241.80992416 -8.53313364 239.74168884 -8.37133789 235.45410156 C-7.71133789 235.45410156 -7.05133789 235.45410156 -6.37133789 235.45410156 C-6.10321289 234.83535156 -5.83508789 234.21660156 -5.55883789 233.57910156 C-4.37133789 231.45410156 -4.37133789 231.45410156 -1.37133789 229.45410156 C1.7228241 229.17562866 1.7228241 229.17562866 5.57861328 229.13525391 C6.63265602 229.12018547 6.63265602 229.12018547 7.70799255 229.10481262 C10.02919705 229.07393729 12.35028598 229.05693369 14.67163086 229.04003906 C16.2816111 229.02133088 17.8915815 229.00175773 19.50154114 228.98135376 C23.73800866 228.92998945 27.97450799 228.89038683 32.21112061 228.85321045 C36.53462621 228.81319769 40.85799903 228.76209292 45.18139648 228.71191406 C53.66372771 228.6151039 62.14612455 228.53071551 70.62866211 228.45410156 C64.58680195 220.44594846 64.58680195 220.44594846 55.71820068 216.45263672 C51.15534837 216.0017202 46.60338577 216.13784662 42.02709961 216.26660156 C40.33803245 216.27231145 38.64893984 216.27270191 36.95986938 216.26806641 C32.53978118 216.26806641 28.12296678 216.33082674 23.70367432 216.41009521 C16.62714415 216.52543256 9.54955858 216.54001043 2.47224808 216.56259155 C0.01625552 216.57876147 -2.43833962 216.61921277 -4.89395142 216.66430664 C-13.68485514 216.78228955 -21.17827914 216.6206008 -28.93383789 211.89160156 C-29.40821289 211.41722656 -29.88258789 210.94285156 -30.37133789 210.45410156 C-30.37133789 209.79410156 -30.37133789 209.13410156 -30.37133789 208.45410156 C-31.03133789 208.45410156 -31.69133789 208.45410156 -32.37133789 208.45410156 C-37.31536956 202.11956099 -38.61776855 195.98964898 -38.63876343 188.07389832 C-38.64329454 187.36443489 -38.64782565 186.65497146 -38.65249407 185.92400914 C-38.66507877 183.5644248 -38.66352158 181.20507302 -38.66186523 178.84545898 C-38.66785419 177.14638474 -38.67466059 175.44731322 -38.68222046 173.74824524 C-38.69985015 169.14481472 -38.70457456 164.5414586 -38.70585203 159.93799758 C-38.7072759 157.05854953 -38.71154995 154.17912027 -38.71684647 151.2996769 C-38.73533665 141.24461292 -38.74351834 131.1896019 -38.74194336 121.13452148 C-38.74074221 111.77720071 -38.76184199 102.42011067 -38.79343069 93.06284827 C-38.81962323 85.01589732 -38.83030941 76.96902159 -38.82903254 68.92202836 C-38.82852379 64.12178159 -38.83415896 59.32174 -38.85538864 54.52153587 C-38.8748213 50.00455409 -38.87486129 45.48797216 -38.86035538 40.97097588 C-38.85827241 39.31906802 -38.86293748 37.6671348 -38.87507629 36.01527023 C-38.94855558 25.31804933 -38.56141575 15.99497116 -31.18383789 7.57910156 C-22.64219062 -1.02741898 -11.20805975 -0.09521312 0 0 Z " fill="#282A27" transform="translate(114.371337890625,122.5458984375)"/>
<path d="M0 0 C6.93 0.495 6.93 0.495 14 1 C15.29243536 5.1196377 16.26252625 8.66831683 16 13 C16.825 13.0825 17.65 13.165 18.5 13.25 C23.93196253 14.41399197 28.40247491 16.93498327 33 20 C33 20.66 33 21.32 33 22 C33.66 22 34.32 22 35 22 C36.47265625 24.08203125 36.47265625 24.08203125 38.0625 26.8125 C38.58972656 27.70582031 39.11695313 28.59914063 39.66015625 29.51953125 C42.21013929 34.24034533 42.08579579 37.76645684 42 43 C39.19502177 44.40248912 36.81498635 44.16979056 33.6875 44.1875 C32.55699219 44.20167969 31.42648437 44.21585938 30.26171875 44.23046875 C26.973197 43.99810614 24.86198529 43.62112453 22 42 C20.62890625 39.94140625 20.62890625 39.94140625 19.5625 37.5625 C17.9284142 34.40597401 17.1212714 33.08893236 14.1875 30.9375 C7.92616218 29.09593005 2.01601748 29.47327266 -4 32 C-6.64510628 35.63702113 -6.08252986 39.52147006 -5.77734375 43.81640625 C-4.60576524 47.10742326 -2.93029382 48.11623968 0 50 C2.96526949 51.29537937 5.99964064 52.33562685 9.0625 53.375 C35.84458649 62.92709902 35.84458649 62.92709902 42.28515625 74.26171875 C45.511528 82.86037463 44.56828037 91.66503566 41 100 C36.16414125 108.48158403 29.14899306 113.74577562 19.8828125 116.5546875 C18 117 18 117 16 117 C16.020625 118.27875 16.04125 119.5575 16.0625 120.875 C16.125 124.75 16.125 124.75 15 127 C9.72 127 4.44 127 -1 127 C-1.33 123.37 -1.66 119.74 -2 116 C-2.9075 115.855625 -3.815 115.71125 -4.75 115.5625 C-7.21476956 115.13590527 -9.58847107 114.64925779 -12 114 C-12 113.34 -12 112.68 -12 112 C-12.57878906 111.896875 -13.15757812 111.79375 -13.75390625 111.6875 C-19.49873455 109.92908299 -23.89146281 104.67272948 -26.9375 99.6875 C-29.29041414 95.06116207 -30.38354435 90.20243485 -30 85 C-26.98459664 81.98459664 -23.59795719 82.63166467 -19.5625 82.625 C-18.78583984 82.60050781 -18.00917969 82.57601562 -17.20898438 82.55078125 C-11.51772442 82.52136905 -11.51772442 82.52136905 -9.0859375 84.76953125 C-8.54839844 85.87361328 -8.54839844 85.87361328 -8 87 C-7.49146484 88.00740234 -7.49146484 88.00740234 -6.97265625 89.03515625 C-6.67230469 89.70417969 -6.37195313 90.37320313 -6.0625 91.0625 C-3.92403288 95.36856578 -3.92403288 95.36856578 0 98 C6.37115312 99.63132348 12.19160305 99.20623512 18 96 C20.75756615 92.97340301 21.81201185 91.00260349 22.5625 87 C21.53050002 81.49600008 18.21891171 78.83650803 13.8125 75.8125 C10.26682211 73.94796249 6.5838649 72.92188278 2.7421875 71.8359375 C-7.94176695 68.57900552 -19.90478917 63.91310525 -25.9609375 53.94921875 C-28.83866527 45.78123202 -28.5521724 35.21699286 -25 27.3125 C-20.33987913 19.70707802 -13.46881074 14.68930676 -5 12 C-4.01 12 -3.02 12 -2 12 C-2.02320313 11.38511719 -2.04640625 10.77023438 -2.0703125 10.13671875 C-2.09738281 8.92435547 -2.09738281 8.92435547 -2.125 7.6875 C-2.14820313 6.88699219 -2.17140625 6.08648437 -2.1953125 5.26171875 C-2 3 -2 3 0 0 Z " fill="#272926" transform="translate(329,71)"/>
<path d="M0 0 C1.21166276 -0.00097411 1.21166276 -0.00097411 2.44780356 -0.00196791 C3.84816301 -0.01761439 3.84816301 -0.01761439 5.27681255 -0.03357697 C6.81793684 -0.02019264 6.81793684 -0.02019264 8.39019495 -0.00653791 C9.48024444 -0.01277788 10.57029394 -0.01901784 11.69337523 -0.02544689 C15.36475373 -0.0414671 19.03547658 -0.02873686 22.7068606 -0.01618147 C25.33132542 -0.02159858 27.95578719 -0.02871891 30.58024317 -0.0374217 C36.98011141 -0.05523426 43.3797923 -0.0513547 49.77966797 -0.03977114 C54.98028393 -0.030747 60.18084729 -0.02950838 65.38146883 -0.03386641 C66.12092892 -0.03447934 66.86038901 -0.03509227 67.62225698 -0.03572378 C69.12434847 -0.03700265 70.62643995 -0.0382995 72.1285314 -0.03961414 C86.22327893 -0.05102815 100.3179225 -0.03789382 114.41265298 -0.01641268 C126.51126257 0.00145538 138.60971863 -0.00164175 150.70832545 -0.02008772 C164.75019381 -0.04148636 178.79197097 -0.04992553 192.83385336 -0.03763866 C194.33080427 -0.03636444 195.8277552 -0.03510696 197.32470614 -0.03386641 C198.06127577 -0.0332493 198.7978454 -0.0326322 199.55673532 -0.0319964 C204.75166562 -0.02854019 209.94653817 -0.03437773 215.14145952 -0.04378462 C222.13216748 -0.05616471 229.12258014 -0.04736973 236.11325938 -0.02420759 C238.68360574 -0.01890492 241.25397645 -0.0204607 243.82431322 -0.02925825 C247.32414653 -0.04013541 250.8230393 -0.02654365 254.32281214 -0.00653791 C255.86059034 -0.01992224 255.86059034 -0.01992224 257.42943478 -0.03357697 C264.25643464 0.04248993 264.25643464 0.04248993 267.54716307 2.31829882 C269.60727335 5.59431607 269.51788049 7.71479085 268.91999537 11.50139666 C266.89525713 14.39854016 265.28799356 16.2153775 261.73562056 16.9581027 C258.93494078 17.14329313 256.17458073 17.1578038 253.36787134 17.12285662 C251.7557935 17.13243985 251.7557935 17.13243985 250.11114842 17.14221668 C246.50343417 17.15749909 242.89681233 17.13698244 239.28913599 17.11663103 C236.70540731 17.12013122 234.12168077 17.12578864 231.53796107 17.13344622 C225.2449224 17.14797381 218.95220633 17.13573797 212.65919822 17.11433297 C205.33128391 17.0903227 198.00344352 17.09203736 190.6754986 17.09463888 C177.60084328 17.09832929 164.52633995 17.07750167 151.45173365 17.04338884 C138.76386905 17.01029733 126.07616397 16.99613052 113.38825709 17.00237322 C99.57306362 17.00913713 85.75793698 17.006677 71.94275337 16.98701382 C71.21221744 16.98597433 70.4816815 16.98493485 69.72900811 16.98386386 C68.2617541 16.98177296 66.79450011 16.97966199 65.32724616 16.97753069 C60.21894082 16.97063481 55.11065607 16.96996583 50.00234705 16.97141314 C43.12736543 16.9730031 36.25257847 16.9581091 29.37764651 16.9321866 C26.85126204 16.92501168 24.32485726 16.92294752 21.79846483 16.92630434 C18.35614078 16.93000636 14.91437871 16.91531528 11.47211939 16.89580584 C9.9641025 16.90379772 9.9641025 16.90379772 8.42562062 16.91195107 C-0.12423588 16.82805879 -0.12423588 16.82805879 -4.08000463 13.50139666 C-5.60847124 10.44446343 -5.31242908 7.87155119 -5.08000463 4.50139666 C-3.64242834 1.94133483 -2.90474072 0.70020387 0 0 Z " fill="#202320" transform="translate(118.08000463247299,269.4986033439636)"/>
<path d="M0 0 C20.8080975 -0.86003618 20.8080975 -0.86003618 29.8125 7.125 C37.82305753 16.17828658 37.57869492 26.62851639 37.51757812 38.05688477 C37.52300647 39.76787917 37.53013311 41.47886889 37.53881836 43.18984985 C37.55696862 47.81173322 37.55001904 52.43325725 37.53730202 57.05514646 C37.5271328 61.9049327 37.53657839 66.7546894 37.54284668 71.60447693 C37.550111 79.74573253 37.5405666 87.88684268 37.52148438 96.02807617 C37.49971067 105.42583221 37.50677553 114.82324115 37.52879 124.22098881 C37.54696993 132.30706924 37.54948987 140.39304548 37.53903532 148.47913975 C37.53281558 153.30108288 37.53192296 158.1228631 37.54518127 162.94479561 C37.55677725 167.47826558 37.54864595 172.01128999 37.52560425 176.54471207 C37.52033742 178.20347925 37.52179605 179.86228426 37.53065491 181.52103615 C37.58008688 191.72089688 36.98121793 199.88633781 30.6875 208.3125 C23.02554904 215.97445096 14.47933146 216.38967554 4.18432617 216.53662109 C-2.1576113 216.42532685 -5.984071 215.17619708 -10.69921875 210.7265625 C-12 209 -12 209 -12 207 C-12.66 207 -13.32 207 -14 207 C-16.29648649 204.4385343 -17 203.52032428 -17 200 C-15.72153198 199.97812622 -15.72153198 199.97812622 -14.41723633 199.95581055 C-11.23928825 199.89456715 -8.06197454 199.82037971 -4.88452148 199.73754883 C-3.51224042 199.70440194 -2.13982638 199.67633829 -0.76733398 199.65356445 C1.21137766 199.61983234 3.18971376 199.5659851 5.16796875 199.51171875 C6.35672607 199.48553467 7.5454834 199.45935059 8.77026367 199.43237305 C12.24748361 198.96686874 14.11673871 197.92569701 17 196 C17.66 196 18.32 196 19 196 C19.13209102 179.15032851 19.26253538 162.30064514 19.39115143 145.45094681 C19.45094023 137.62289085 19.51123489 129.79483944 19.57275391 121.96679688 C19.59672147 118.91015658 19.62064259 115.85351592 19.64453125 112.796875 C19.6504063 112.0459492 19.65628136 111.2950234 19.66233444 110.52134228 C19.72604001 102.35267565 19.78690009 94.18400287 19.83984375 86.01525879 C19.84446562 85.30238472 19.84908749 84.58951066 19.85384941 83.85503435 C19.87194096 81.0507108 19.88993108 78.24638675 19.907444 75.44205952 C19.95502056 67.83753343 20.01414631 60.23347482 20.10489655 52.62933731 C20.14426898 49.19008291 20.17276498 45.75080857 20.19798279 42.31142426 C20.2115619 40.83069734 20.23035784 39.3500067 20.25502014 37.86942291 C20.28718115 35.92191526 20.29952257 33.97410917 20.31054688 32.02636719 C20.32933899 30.47233185 20.32933899 30.47233185 20.34851074 28.88690186 C19.92994428 25.4196908 18.67138281 23.04454522 17 20 C16.505 18.515 16.505 18.515 16 17 C14.92878906 16.93941406 13.85757812 16.87882812 12.75390625 16.81640625 C11.35675609 16.73201463 9.95962143 16.64736594 8.5625 16.5625 C7.85544922 16.52318359 7.14839844 16.48386719 6.41992188 16.44335938 C1.11328125 16.11328125 1.11328125 16.11328125 0 15 C-0.07313567 12.46950598 -0.09247527 9.96695163 -0.0625 7.4375 C-0.05798828 6.72658203 -0.05347656 6.01566406 -0.04882812 5.28320312 C-0.03700864 3.52209987 -0.01907263 1.76103964 0 0 Z " fill="#2B2D2A" transform="translate(387,123)"/>
<path d="M0 0 C0.680625 -0.00515625 1.36125 -0.0103125 2.0625 -0.015625 C4 0.25 4 0.25 7 2.25 C7 2.91 7 3.57 7 4.25 C7.89211182 4.65206665 7.89211182 4.65206665 8.80224609 5.06225586 C11.01812796 6.25979699 12.42079528 7.45318983 14.1640625 9.25390625 C14.72867188 9.82947266 15.29328125 10.40503906 15.875 10.99804688 C16.4525 11.59681641 17.03 12.19558594 17.625 12.8125 C18.78160151 14.00349384 19.94035778 15.19240005 21.1015625 16.37890625 C21.61025879 16.90556885 22.11895508 17.43223145 22.64306641 17.97485352 C23.99400105 19.3664217 23.99400105 19.3664217 26 20.25 C26 20.91 26 21.57 26 22.25 C26.59022949 22.51353271 27.18045898 22.77706543 27.78857422 23.04858398 C30.09160527 24.29976701 31.56361442 25.59804978 33.3828125 27.47265625 C33.99253906 28.09333984 34.60226562 28.71402344 35.23046875 29.35351562 C36.16826172 30.32321289 36.16826172 30.32321289 37.125 31.3125 C38.37536074 32.5972393 39.62786516 33.87989681 40.8828125 35.16015625 C41.43340332 35.72871338 41.98399414 36.29727051 42.55126953 36.88305664 C43.97414012 38.35729905 43.97414012 38.35729905 46 39.25 C46 39.91 46 40.57 46 41.25 C46.66 41.25 47.32 41.25 48 41.25 C50.42248845 44.88373267 50.87329381 47.05821572 50.78466797 51.375 C49.0673851 57.66707313 43.22887399 61.96730413 38.5625 66.25 C36.92738893 67.79783783 35.29922902 69.35273232 33.6716156 70.90844727 C32.20019979 72.3072259 30.71289309 73.68923163 29.22485352 75.0703125 C26.96594048 77.04650335 26.96594048 77.04650335 26 79.25 C25.34 79.25 24.68 79.25 24 79.25 C24 79.91 24 80.57 24 81.25 C23.34 81.25 22.68 81.25 22 81.25 C22 81.91 22 82.57 22 83.25 C21.34 83.25 20.68 83.25 20 83.25 C20 83.91 20 84.57 20 85.25 C19.34 85.25 18.68 85.25 18 85.25 C18 85.91 18 86.57 18 87.25 C17.34 87.25 16.68 87.25 16 87.25 C16 87.91 16 88.57 16 89.25 C14.54924986 90.50292058 13.09266055 91.75042626 11.59375 92.9453125 C9.83237147 94.34319991 9.83237147 94.34319991 7.75 96.5 C5.08532968 99.16467032 4.08894148 99.24270971 0.1875 99.5625 C-3.13227327 99.53232024 -3.99044521 99.2560988 -6.9375 97.375 C-9.60446101 94.62722199 -9.95824498 93.803254 -10.25 89.9375 C-9.82010976 83.59661891 -6.31691023 80.34253303 -1.875 76.0625 C1.49301768 72.97499837 1.49301768 72.97499837 4 69.25 C4.66 69.25 5.32 69.25 6 69.25 C6 68.59 6 67.93 6 67.25 C6.66 67.25 7.32 67.25 8 67.25 C8 66.59 8 65.93 8 65.25 C9.95927063 63.5356382 11.95880212 61.86594832 14 60.25 C13.22183426 60.24635437 12.44366852 60.24270874 11.641922 60.23895264 C4.29984427 60.20104836 -3.04172741 60.14416888 -10.38347912 60.06609726 C-14.15776976 60.02662775 -17.9318273 59.99443703 -21.70629883 59.97900391 C-25.35055715 59.96383332 -28.99417461 59.92938215 -32.63814735 59.88169098 C-34.02671035 59.86688104 -35.41536486 59.8589592 -36.80400658 59.85811615 C-38.75250329 59.85574398 -40.70090998 59.82636565 -42.64916992 59.79589844 C-43.7572551 59.78701599 -44.86534027 59.77813354 -46.00700378 59.76898193 C-49.67210276 59.13345819 -51.3495522 57.80903244 -54 55.25 C-55.60847182 52.03305636 -55.61309149 48.72862778 -55 45.25 C-52.82425584 42.55894802 -51.08934144 40.79467072 -48 39.25 C-46.09091814 39.1300592 -44.17777752 39.07268712 -42.26513672 39.04467773 C-41.06404266 39.02473251 -39.86294861 39.00478729 -38.62545776 38.98423767 C-36.67230148 38.95916893 -36.67230148 38.95916893 -34.6796875 38.93359375 C-33.33732462 38.91302375 -31.99496821 38.89202727 -30.65261841 38.87062073 C-27.11811562 38.81540469 -23.58355443 38.76599342 -20.0489502 38.71777344 C-16.44273678 38.66755496 -12.83660828 38.61187071 -9.23046875 38.55664062 C-2.15371951 38.44906483 4.92310584 38.34761858 12 38.25 C12 37.59 12 36.93 12 36.25 C11.34 36.25 10.68 36.25 10 36.25 C10 35.59 10 34.93 10 34.25 C9.401875 33.981875 8.80375 33.71375 8.1875 33.4375 C6.00152146 32.25082594 4.58667406 31.15400887 3 29.25 C3 28.59 3 27.93 3 27.25 C2.34 27.25 1.68 27.25 1 27.25 C1 26.59 1 25.93 1 25.25 C0.46375 25.04375 -0.0725 24.8375 -0.625 24.625 C-4.89289946 22.15411084 -8.42872254 18.96383238 -10 14.25 C-10.47469459 7.19938918 -10.47469459 7.19938918 -9 4.25 C-8.34 4.25 -7.68 4.25 -7 4.25 C-7 3.59 -7 2.93 -7 2.25 C-4.00261059 0.25174039 -3.36652492 -0.02550398 0 0 Z " fill="#262825" transform="translate(333,312.75)"/>
<path d="M0 0 C1.73050598 -0.00574036 1.73050598 -0.00574036 3.49597168 -0.01159668 C5.9301033 -0.01431325 8.36426424 -0.00697005 10.79833984 0.00976562 C14.51856737 0.03117701 18.2368636 0.0099533 21.95703125 -0.015625 C24.32552508 -0.01298168 26.69401772 -0.00785662 29.0625 0 C30.17202026 -0.00809692 31.28154053 -0.01619385 32.42468262 -0.02453613 C38.53853732 0.04949522 42.46279007 0.27891979 47.03125 4.53125 C47.52625 6.01625 47.52625 6.01625 48.03125 7.53125 C48.69125 7.53125 49.35125 7.53125 50.03125 7.53125 C51.20259212 11.71636915 51.17501279 15.77682952 51.1640625 20.09375 C51.16501923 20.92205322 51.16597595 21.75035645 51.16696167 22.60375977 C51.16764106 24.35205156 51.1658036 26.10034589 51.16162109 27.84863281 C51.15626944 30.52154212 51.16157424 33.1942834 51.16796875 35.8671875 C51.16730793 37.5677087 51.16602667 39.2682298 51.1640625 40.96875 C51.16608673 41.76676025 51.16811096 42.56477051 51.17019653 43.38696289 C51.15522127 46.93854137 50.98760763 50.11425463 50.03125 53.53125 C49.37125 53.53125 48.71125 53.53125 48.03125 53.53125 C47.804375 54.129375 47.5775 54.7275 47.34375 55.34375 C45.63929017 58.18451638 43.97908535 59.04836332 41.03125 60.53125 C38.41357422 60.91220093 38.41357422 60.91220093 35.5859375 60.91943359 C34.52133301 60.92889008 33.45672852 60.93834656 32.35986328 60.9480896 C30.65032471 60.93898056 30.65032471 60.93898056 28.90625 60.9296875 C27.72659668 60.93255768 26.54694336 60.93542786 25.33154297 60.93838501 C22.84016438 60.94042435 20.34876974 60.93490362 17.85742188 60.92236328 C14.04520851 60.90630878 10.23405541 60.92221742 6.421875 60.94140625 C3.99999766 60.9394238 1.57812098 60.93558008 -0.84375 60.9296875 C-1.98344238 60.93576019 -3.12313477 60.94183289 -4.29736328 60.9480896 C-5.36196777 60.93863312 -6.42657227 60.92917664 -7.5234375 60.91943359 C-8.45655762 60.91704681 -9.38967773 60.91466003 -10.35107422 60.91220093 C-14.78693687 60.26664887 -17.34357289 58.24535548 -20.24804688 54.92773438 C-22.48149967 50.51913686 -22.54656713 47.05897833 -22.5 42.1875 C-22.5038269 41.30018188 -22.50765381 40.41286377 -22.51159668 39.49865723 C-22.51430911 37.62946432 -22.50699489 35.76023302 -22.49023438 33.89111328 C-22.46881441 31.03982436 -22.49005801 28.19105487 -22.515625 25.33984375 C-22.5129816 23.51822364 -22.50785638 21.69660509 -22.5 19.875 C-22.50809692 19.02796509 -22.51619385 18.18093018 -22.52453613 17.30822754 C-22.43973026 11.92048088 -21.65325634 8.72587148 -17.96875 4.53125 C-12.57385851 -0.51830105 -6.99274219 -0.05103079 0 0 Z M-5.96875 16.53125 C-5.96875 18.51125 -5.96875 20.49125 -5.96875 22.53125 C-2.00875 22.53125 1.95125 22.53125 6.03125 22.53125 C6.03125 20.55125 6.03125 18.57125 6.03125 16.53125 C2.07125 16.53125 -1.88875 16.53125 -5.96875 16.53125 Z M22.03125 16.53125 C22.03125 26.10125 22.03125 35.67125 22.03125 45.53125 C26.32125 45.53125 30.61125 45.53125 35.03125 45.53125 C35.03125 35.96125 35.03125 26.39125 35.03125 16.53125 C30.74125 16.53125 26.45125 16.53125 22.03125 16.53125 Z M-5.96875 38.53125 C-5.96875 40.51125 -5.96875 42.49125 -5.96875 44.53125 C0.09175614 45.6124891 0.09175614 45.6124891 6.03125 44.53125 C6.03125 42.55125 6.03125 40.57125 6.03125 38.53125 C2.07125 38.53125 -1.88875 38.53125 -5.96875 38.53125 Z " fill="#262825" transform="translate(134.96875,163.46875)"/>
<path d="M0 0 C32.34 0 64.68 0 98 0 C98 5.28 98 10.56 98 16 C87.35090514 16.18121374 76.70284503 16.32777731 66.05255318 16.41449738 C61.10638981 16.45613288 56.16134182 16.51254466 51.21582031 16.60351562 C46.43706284 16.6908623 41.65937353 16.73836155 36.879879 16.75901794 C35.06260244 16.77372519 33.24538007 16.80244614 31.42856216 16.84584045 C15.43188076 17.21249293 15.43188076 17.21249293 8.99951172 12.16210938 C6.82003784 10.05212402 6.82003784 10.05212402 5 8 C4.44055695 7.41142212 3.88111389 6.82284424 3.30471802 6.21643066 C0 2.53792237 0 2.53792237 0 0 Z " fill="#2A2C29" transform="translate(205,323)"/>
<path d="M0 0 C88.11 0 176.22 0 267 0 C267 0.33 267 0.66 267 1 C136.32 1.495 136.32 1.495 3 2 C2.67 3.32 2.34 4.64 2 6 C0.68 5.34 -0.64 4.68 -2 4 C-1.34 2.68 -0.68 1.36 0 0 Z " fill="#353534" transform="translate(116,270)"/>
<path d="M0 0 C17.16 0 34.32 0 52 0 C52 0.33 52 0.66 52 1 C35.83 1.33 19.66 1.66 3 2 C2.67 3.32 2.34 4.64 2 6 C0.68 5.34 -0.64 4.68 -2 4 C-1.34 2.68 -0.68 1.36 0 0 Z " fill="#3B3939" transform="translate(116,270)"/>
<path d="M0 0 C0.66 0.66 1.32 1.32 2 2 C0.02 2.99 0.02 2.99 -2 4 C-2.99 3.34 -3.98 2.68 -5 2 C-5.81425425 3.12373096 -6.62634296 4.2490313 -7.4375 5.375 C-7.88996094 6.00148438 -8.34242188 6.62796875 -8.80859375 7.2734375 C-10.05530717 8.99402639 -10.05530717 8.99402639 -11 11 C-11.66 11 -12.32 11 -13 11 C-13 8.36 -13 5.72 -13 3 C-12.34 3 -11.68 3 -11 3 C-11 2.34 -11 1.68 -11 1 C-7.23056711 -1.56321436 -4.3179896 -0.95955325 0 0 Z " fill="#2E2E2C" transform="translate(175,312)"/>
<path d="M0 0 C0.66 1.32 1.32 2.64 2 4 C1.01 5.32 0.02 6.64 -1 8 C-0.01 8 0.98 8 2 8 C2 8.928125 2 9.85625 2 10.8125 C2.62420721 14.06092614 2.62420721 14.06092614 4.84765625 15.06640625 C6.88326804 15.80956611 8.90300196 16.45544926 11 17 C11 17.33 11 17.66 11 18 C7.00329808 18.31346682 4.67325099 18.40395059 1.1875 16.3125 C-1.1384284 13.8536614 -2.20042216 12.27826915 -3 9 C-2.66796802 5.59667215 -1.6535556 2.97640008 0 0 Z " fill="#595A58" transform="translate(163,395)"/>
<path d="M0 0 C1.18851563 0.00902344 2.37703125 0.01804688 3.6015625 0.02734375 C4.51679688 0.03894531 5.43203125 0.05054688 6.375 0.0625 C5.055 0.3925 3.735 0.7225 2.375 1.0625 C2.375 1.7225 2.375 2.3825 2.375 3.0625 C1.715 3.0625 1.055 3.0625 0.375 3.0625 C0.375 2.4025 0.375 1.7425 0.375 1.0625 C-0.91909592 1.51392881 -2.21021059 1.97391021 -3.5 2.4375 C-4.21929687 2.69273437 -4.93859375 2.94796875 -5.6796875 3.2109375 C-7.80657994 4.00127783 -7.80657994 4.00127783 -9.625 6.0625 C-11.75 5.6875 -11.75 5.6875 -13.625 5.0625 C-8.59306005 0.95749635 -6.52315396 -0.06395249 0 0 Z " fill="#4B4B49" transform="translate(129.625,163.9375)"/>
<path d="M0 0 C0.66 0.33 1.32 0.66 2 1 C0.4169423 5.2742558 -2.50568404 7.26531794 -6 10 C-6.33 8.35 -6.66 6.7 -7 5 C-4.69 3.35 -2.38 1.7 0 0 Z " fill="#313330" transform="translate(208,375)"/>
<path d="M0 0 C0.33 0 0.66 0 1 0 C1.48137536 6.3782235 1.48137536 6.3782235 -0.5 8.9375 C-4.12197655 10.47684003 -7.07962923 10.19601854 -11 10 C-10.67 9.01 -10.34 8.02 -10 7 C-8.8553125 7.061875 -8.8553125 7.061875 -7.6875 7.125 C-4.77281584 7.22080824 -4.77281584 7.22080824 -2 5 C-1.34 5.33 -0.68 5.66 0 6 C0 4.02 0 2.04 0 0 Z " fill="#191B18" transform="translate(343,188)"/>
<path d="M0 0 C3.63 0 7.26 0 11 0 C10.34 0.66 9.68 1.32 9 2 C8.54625 2.53625 8.0925 3.0725 7.625 3.625 C6 5 6 5 2 5 C1.34 3.35 0.68 1.7 0 0 Z " fill="#191919" transform="translate(131,209)"/>
<path d="M0 0 C5.75 -0.125 5.75 -0.125 8 1 C7.67 2.65 7.34 4.3 7 6 C7.66 6 8.32 6 9 6 C9 6.66 9 7.32 9 8 C5.56247993 6.4722133 2.81046312 4.49818944 0 2 C0 1.34 0 0.68 0 0 Z " fill="#434442" transform="translate(375,330)"/>
<path d="M0 0 C0.99 0.495 0.99 0.495 2 1 C2 1.66 2 2.32 2 3 C2.61875 3.309375 3.2375 3.61875 3.875 3.9375 C5.25 4.625 6.625 5.3125 8 6 C8 6.99 8 7.98 8 9 C5.625 9.1875 5.625 9.1875 3 9 C2.34 8.01 1.68 7.02 1 6 C1.66 6 2.32 6 3 6 C3 5.34 3 4.68 3 4 C2.01 3.67 1.02 3.34 0 3 C0 2.01 0 1.02 0 0 Z " fill="#3D3D3B" transform="translate(179,316)"/>
<path d="M0 0 C2.35694954 0.09031574 4.71153582 0.24688128 7.0625 0.4375 C8.35285156 0.53933594 9.64320313 0.64117187 10.97265625 0.74609375 C12.47119141 0.87177734 12.47119141 0.87177734 14 1 C14 1.33 14 1.66 14 2 C13.24074219 2.13277344 12.48148437 2.26554687 11.69921875 2.40234375 C10.70535156 2.57894531 9.71148437 2.75554687 8.6875 2.9375 C7.70136719 3.11152344 6.71523438 3.28554687 5.69921875 3.46484375 C2.91810787 3.95746847 2.91810787 3.95746847 0 5 C-0.5625 3.0625 -0.5625 3.0625 -1 1 C-0.67 0.67 -0.34 0.34 0 0 Z " fill="#454643" transform="translate(329,71)"/>
<path d="M0 0 C0.66 1.32 1.32 2.64 2 4 C1.01 5.32 0.02 6.64 -1 8 C-0.01 8 0.98 8 2 8 C1.67 8.99 1.34 9.98 1 11 C0.01 11.33 -0.98 11.66 -2 12 C-3.01911045 8.10885099 -3.16782969 6.39403493 -1.5625 2.625 C-1.046875 1.75875 -0.53125 0.8925 0 0 Z " fill="#4D4E4C" transform="translate(163,395)"/>
<path d="M0 0 C1.32 0 2.64 0 4 0 C4 0.99 4 1.98 4 3 C4.99 3.33 5.98 3.66 7 4 C7.33 5.65 7.66 7.3 8 9 C6.84775972 8.07038578 5.70340824 7.1309875 4.5625 6.1875 C3.60537109 5.40439453 3.60537109 5.40439453 2.62890625 4.60546875 C1 3 1 3 0 0 Z " fill="#595A58" transform="translate(176,340)"/>
<path d="M0 0 C0.66 0.99 1.32 1.98 2 3 C2.33 3.33 2.66 3.66 3 4 C2.71325582 6.00720923 2.38133299 8.0085944 2 10 C0.0625 9.375 0.0625 9.375 -2 8 C-2.75 4.875 -2.75 4.875 -3 2 C-2.01 2 -1.02 2 0 2 C0 1.34 0 0.68 0 0 Z " fill="#363734" transform="translate(420,315)"/>
<path d="M0 0 C0.66 1.32 1.32 2.64 2 4 C-0.36292656 6.52588702 -1.66462511 7.88820837 -5 9 C-3.7508258 5.54074837 -2.32472205 2.85306797 0 0 Z " fill="#474846" transform="translate(309,92)"/>
<path d="M0 0 C0.99 0 1.98 0 3 0 C2.34 1.98 1.68 3.96 1 6 C-1.97 5.505 -1.97 5.505 -5 5 C-5 4.34 -5 3.68 -5 3 C-3.68 3 -2.36 3 -1 3 C-0.67 2.01 -0.34 1.02 0 0 Z " fill="#1C1E1B" transform="translate(332,391)"/>
<path d="M0 0 C2.64 0 5.28 0 8 0 C8 0.33 8 0.66 8 1 C6.35 1.33 4.7 1.66 3 2 C2.67 3.32 2.34 4.64 2 6 C0.68 5.34 -0.64 4.68 -2 4 C-1.34 2.68 -0.68 1.36 0 0 Z " fill="#4C4947" transform="translate(116,270)"/>
<path d="M0 0 C4.87664009 -0.34833144 7.77050005 0.58314288 12 3 C12 3.33 12 3.66 12 4 C7.12335991 4.34833144 4.22949995 3.41685712 0 1 C0 0.67 0 0.34 0 0 Z " fill="#4F4F4E" transform="translate(345,129)"/>
<path d="M0 0 C-0.33 1.65 -0.66 3.3 -1 5 C-2.98 5.66 -4.96 6.32 -7 7 C-7 5 -7 5 -4.625 2.375 C-2 0 -2 0 0 0 Z " fill="#434341" transform="translate(352,163)"/>
<path d="M0 0 C0.99 0.33 1.98 0.66 3 1 C1.68 2.65 0.36 4.3 -1 6 C-2.32 5.67 -3.64 5.34 -5 5 C-3.35 3.35 -1.7 1.7 0 0 Z " fill="#464644" transform="translate(332,388)"/>
<path d="M0 0 C1.0625 1.875 1.0625 1.875 2 4 C1.67 4.66 1.34 5.32 1 6 C-0.65 5.67 -2.3 5.34 -4 5 C-4 4.34 -4 3.68 -4 3 C-2 1.375 -2 1.375 0 0 Z " fill="#40403E" transform="translate(345,375)"/>
<path d="M0 0 C1 2 1 2 0.9375 4.25 C1.01080002 7.47520102 1.88062669 9.99168422 3 13 C0.65849012 11.24386759 -0.85600085 9.96311122 -1.30078125 6.98828125 C-1.3115456 4.98970012 -1.16327294 2.99192981 -1 1 C-0.67 0.67 -0.34 0.34 0 0 Z " fill="#7F7F7B" transform="translate(279,357)"/>
<path d="M0 0 C0 2 0 2 -2.25 4.5 C-4.5264965 6.56954228 -6.19566446 7.85749293 -9 9 C-7.45665977 5.21180126 -4.44676575 0 0 0 Z " fill="#6C6C67" transform="translate(89,127)"/>
<path d="M0 0 C2.1875 0.3125 2.1875 0.3125 4 1 C3.01 1.495 3.01 1.495 2 2 C2 2.66 2 3.32 2 4 C1.34 4 0.68 4 0 4 C-0.33 4.66 -0.66 5.32 -1 6 C-1 5.34 -1 4.68 -1 4 C-1.66 3.67 -2.32 3.34 -3 3 C-1.75 1.4375 -1.75 1.4375 0 0 Z " fill="#4E504E" transform="translate(351,394)"/>
<path d="M0 0 C0.33 1.32 0.66 2.64 1 4 C-1.375 5.5625 -1.375 5.5625 -4 7 C-4.66 6.67 -5.32 6.34 -6 6 C-4.02 4.02 -2.04 2.04 0 0 Z " fill="#696968" transform="translate(170,388)"/>
<path d="M0 0 C0.33 0 0.66 0 1 0 C1.10824843 1.6026782 1.18570645 3.20745748 1.25 4.8125 C1.29640625 5.70582031 1.3428125 6.59914063 1.390625 7.51953125 C1 10 1 10 -1.015625 11.82421875 C-1.67046875 12.21222656 -2.3253125 12.60023438 -3 13 C-3 11.68 -3 10.36 -3 9 C-2.01 9 -1.02 9 0 9 C0 6.03 0 3.06 0 0 Z " fill="#6E6E6C" transform="translate(382,357)"/>
<path d="M0 0 C0.99 0.99 1.98 1.98 3 3 C2.01 4.485 2.01 4.485 1 6 C0.01 5.67 -0.98 5.34 -2 5 C-1.125 1.125 -1.125 1.125 0 0 Z " fill="#1C1E1B" transform="translate(341,337)"/>
<path d="M0 0 C-0.66 1.32 -1.32 2.64 -2 4 C-2.66 4 -3.32 4 -4 4 C-4 3.34 -4 2.68 -4 2 C-4.66 2 -5.32 2 -6 2 C-6 1.34 -6 0.68 -6 0 C-3 -1 -3 -1 0 0 Z " fill="#373836" transform="translate(405,322)"/>
<path d="M0 0 C1.258125 -0.04125 2.51625 -0.0825 3.8125 -0.125 C4.52019531 -0.14820313 5.22789062 -0.17140625 5.95703125 -0.1953125 C8 0 8 0 11 2 C10.67 2.66 10.34 3.32 10 4 C9.01 3.67 8.02 3.34 7 3 C7 2.34 7 1.68 7 1 C6.34 1 5.68 1 5 1 C4.67 1.66 4.34 2.32 4 3 C4 2.34 4 1.68 4 1 C2.68 0.67 1.36 0.34 0 0 Z " fill="#61615E" transform="translate(329,313)"/>
<path d="M0 0 C6.75 0.75 6.75 0.75 9 3 C7.02 3.99 7.02 3.99 5 5 C4.34 4.01 3.68 3.02 3 2 C2.01 1.34 1.02 0.68 0 0 Z " fill="#6B6C6A" transform="translate(168,311)"/>
<path d="M0 0 C0.66 0.33 1.32 0.66 2 1 C2 1.66 2 2.32 2 3 C2.66 3 3.32 3 4 3 C3.67 4.32 3.34 5.64 3 7 C2.67 6.34 2.34 5.68 2 5 C1.01 5.495 1.01 5.495 0 6 C0 5.01 0 4.02 0 3 C-0.66 2.67 -1.32 2.34 -2 2 C-1.34 1.34 -0.68 0.68 0 0 Z " fill="#4A4B48" transform="translate(181,168)"/>
<path d="M0 0 C-0.66 1.65 -1.32 3.3 -2 5 C-3.32 4.34 -4.64 3.68 -6 3 C-3.375 0 -3.375 0 0 0 Z " fill="#525451" transform="translate(286,353)"/>
<path d="M0 0 C0.33 0 0.66 0 1 0 C1.125 7.75 1.125 7.75 0 10 C-1.32 9.67 -2.64 9.34 -4 9 C-2.68 8.34 -1.36 7.68 0 7 C0 4.69 0 2.38 0 0 Z " fill="#6A6B69" transform="translate(344,188)"/>
<path d="M0 0 C1.32 0.33 2.64 0.66 4 1 C4 1.99 4 2.98 4 4 C2.02 4.33 0.04 4.66 -2 5 C-1.34 3.35 -0.68 1.7 0 0 Z " fill="#1C1E1B" transform="translate(363,98)"/>
</svg>
