<?xml version="1.0" encoding="UTF-8"?>
<svg version="1.1" xmlns="http://www.w3.org/2000/svg" width="500" height="500">
<path d="M0 0 C28.16544338 -0.79463633 56.40636859 6.75708707 80.9921875 20.1796875 C82.06210937 20.7571875 83.13203125 21.3346875 84.234375 21.9296875 C90.72436589 25.57082525 96.61731477 29.72576843 102.49609375 34.26171875 C104.28012664 35.6325484 106.12017654 36.93168019 107.9921875 38.1796875 C107.9921875 38.8396875 107.9921875 39.4996875 107.9921875 40.1796875 C108.57194336 40.43492188 109.15169922 40.69015625 109.74902344 40.953125 C112.22234062 42.30553527 113.88820859 43.81701274 115.8828125 45.8046875 C116.94628906 46.86429688 116.94628906 46.86429688 118.03125 47.9453125 C119.12566406 49.05132812 119.12566406 49.05132812 120.2421875 50.1796875 C120.98726563 50.91703125 121.73234375 51.654375 122.5 52.4140625 C123.20382812 53.12046875 123.90765625 53.826875 124.6328125 54.5546875 C125.27766602 55.20179688 125.92251953 55.84890625 126.58691406 56.515625 C127.9921875 58.1796875 127.9921875 58.1796875 127.9921875 60.1796875 C128.6521875 60.1796875 129.3121875 60.1796875 129.9921875 60.1796875 C131.2097168 61.54980469 131.2097168 61.54980469 132.56640625 63.4765625 C133.06567627 64.18176025 133.56494629 64.88695801 134.0793457 65.61352539 C134.6074585 66.37785889 135.13557129 67.14219238 135.6796875 67.9296875 C136.22133545 68.70884521 136.7629834 69.48800293 137.32104492 70.29077148 C152.19243432 91.88042506 161.22286107 115.25539924 164.9921875 141.1796875 C165.25020142 142.81067383 165.25020142 142.81067383 165.51342773 144.47460938 C166.32680535 150.76926446 166.23683516 157.09224921 166.2421875 163.4296875 C166.24286224 164.14555023 166.24353699 164.86141296 166.24423218 165.59896851 C166.22712163 177.03792684 165.56390532 188.00714168 162.9921875 199.1796875 C162.82058105 199.95521973 162.64897461 200.73075195 162.47216797 201.52978516 C157.25343586 224.63864805 147.10750437 247.74160701 131.9921875 266.1796875 C131.3321875 266.1796875 130.6721875 266.1796875 129.9921875 266.1796875 C129.72277344 266.76621094 129.45335937 267.35273438 129.17578125 267.95703125 C125.85704002 274.18925488 120.1011138 279.1791308 115.1796875 284.1796875 C114.69959229 284.67283447 114.21949707 285.16598145 113.72485352 285.67407227 C112.51937676 286.88254081 111.25957044 288.03631052 109.9921875 289.1796875 C109.3321875 289.1796875 108.6721875 289.1796875 107.9921875 289.1796875 C107.9921875 289.8396875 107.9921875 290.4996875 107.9921875 291.1796875 C106.6721875 291.5096875 105.3521875 291.8396875 103.9921875 292.1796875 C103.9921875 292.8396875 103.9921875 293.4996875 103.9921875 294.1796875 C101.58992228 296.02433783 99.18943213 297.74219265 96.6796875 299.4296875 C95.59167847 300.16795776 95.59167847 300.16795776 94.48168945 300.92114258 C79.18771569 311.1796875 79.18771569 311.1796875 73.9921875 311.1796875 C73.9921875 311.8396875 73.9921875 312.4996875 73.9921875 313.1796875 C58.00856314 319.95004367 42.15990993 324.57103974 24.9921875 327.1796875 C23.950625 327.36402344 22.9090625 327.54835938 21.8359375 327.73828125 C-11.02748073 331.5122307 -45.1689845 325.45238042 -74.0078125 309.1796875 C-74.64267578 308.82648438 -75.27753906 308.47328125 -75.93164062 308.109375 C-85.26303773 302.87399983 -93.6550034 296.85711353 -102.0078125 290.1796875 C-103.17763672 289.35597656 -103.17763672 289.35597656 -104.37109375 288.515625 C-105.18126953 287.85433594 -105.18126953 287.85433594 -106.0078125 287.1796875 C-106.0078125 286.5196875 -106.0078125 285.8596875 -106.0078125 285.1796875 C-106.6678125 285.1796875 -107.3278125 285.1796875 -108.0078125 285.1796875 C-108.0078125 284.5196875 -108.0078125 283.8596875 -108.0078125 283.1796875 C-108.905 282.7775 -108.905 282.7775 -109.8203125 282.3671875 C-112.00629104 281.18051344 -113.42113844 280.08369637 -115.0078125 278.1796875 C-115.0078125 277.5196875 -115.0078125 276.8596875 -115.0078125 276.1796875 C-115.6678125 276.1796875 -116.3278125 276.1796875 -117.0078125 276.1796875 C-117.0078125 275.5196875 -117.0078125 274.8596875 -117.0078125 274.1796875 C-117.6678125 274.1796875 -118.3278125 274.1796875 -119.0078125 274.1796875 C-122.0078125 270.71814904 -122.0078125 270.71814904 -122.0078125 268.1796875 C-122.6678125 268.1796875 -123.3278125 268.1796875 -124.0078125 268.1796875 C-125.21289063 266.7902832 -125.21289063 266.7902832 -126.5390625 264.85546875 C-127.01988281 264.15615234 -127.50070313 263.45683594 -127.99609375 262.73632812 C-128.49496094 261.99576172 -128.99382812 261.25519531 -129.5078125 260.4921875 C-130.00667969 259.77095703 -130.50554687 259.04972656 -131.01953125 258.30664062 C-135.21093125 252.15438459 -137.65197792 247.81985699 -136.53515625 240.265625 C-135.74192558 237.12795703 -134.73156198 235.92568075 -132.0078125 234.1796875 C-127.82986477 232.47822051 -124.93329427 231.94831706 -120.5078125 233.0546875 C-119.2703125 233.6115625 -119.2703125 233.6115625 -118.0078125 234.1796875 C-118.0078125 234.8396875 -118.0078125 235.4996875 -118.0078125 236.1796875 C-117.3478125 236.1796875 -116.6878125 236.1796875 -116.0078125 236.1796875 C-114.37351499 238.2741843 -112.86614016 240.35750841 -111.3828125 242.5546875 C-110.75246094 243.45960938 -110.75246094 243.45960938 -110.109375 244.3828125 C-107.0078125 248.91431615 -107.0078125 248.91431615 -107.0078125 251.1796875 C-106.3478125 251.1796875 -105.6878125 251.1796875 -105.0078125 251.1796875 C-104.0178125 253.6546875 -104.0178125 253.6546875 -103.0078125 256.1796875 C-102.3478125 256.1796875 -101.6878125 256.1796875 -101.0078125 256.1796875 C-101.0078125 256.8396875 -101.0078125 257.4996875 -101.0078125 258.1796875 C-100.3478125 258.1796875 -99.6878125 258.1796875 -99.0078125 258.1796875 C-97.4921875 259.75390625 -97.4921875 259.75390625 -95.7578125 261.8671875 C-93.50705522 264.53317883 -91.30731705 266.88978841 -88.5703125 269.0546875 C-87.7246875 269.7559375 -86.8790625 270.4571875 -86.0078125 271.1796875 C-86.0078125 271.8396875 -86.0078125 272.4996875 -86.0078125 273.1796875 C-85.19763672 273.53740234 -85.19763672 273.53740234 -84.37109375 273.90234375 C-81.38724099 275.51510384 -78.88286343 277.54601693 -76.1953125 279.6171875 C-62.27627217 289.84477132 -45.86352048 296.99490851 -29.02978516 300.72412109 C-27.14060713 301.14976782 -25.26651635 301.64089567 -23.39453125 302.13671875 C9.20480392 309.80509082 45.66268381 302.60140171 73.9921875 285.1796875 C77.27772511 283.07371324 80.50460642 280.89027071 83.69921875 278.6484375 C85.9921875 277.1796875 85.9921875 277.1796875 87.9921875 277.1796875 C87.9921875 276.5196875 87.9921875 275.8596875 87.9921875 275.1796875 C89.6421875 274.5196875 91.2921875 273.8596875 92.9921875 273.1796875 C92.9921875 272.5196875 92.9921875 271.8596875 92.9921875 271.1796875 C94.671875 269.453125 94.671875 269.453125 96.8671875 267.5546875 C97.94613281 266.60722656 97.94613281 266.60722656 99.046875 265.640625 C100.9921875 264.1796875 100.9921875 264.1796875 102.9921875 264.1796875 C103.3634375 263.344375 103.3634375 263.344375 103.7421875 262.4921875 C105.22143568 259.75557837 106.92686189 257.50317881 108.9921875 255.1796875 C109.6521875 255.1796875 110.3121875 255.1796875 110.9921875 255.1796875 C111.27433105 254.5928418 111.55647461 254.00599609 111.84716797 253.40136719 C112.89574143 251.36682166 114.02990434 249.52540424 115.3125 247.6328125 C130.20901256 225.34282007 141.04750445 201.45945622 141.1953125 174.2109375 C141.20101257 173.37236206 141.20671265 172.53378662 141.21258545 171.6697998 C141.22197973 169.90162392 141.22854708 168.13343097 141.23242188 166.36523438 C141.24206085 163.71451624 141.27311002 161.06459716 141.3046875 158.4140625 C141.4896635 128.97483098 130.78027013 98.38095094 110.9921875 76.1796875 C110.9921875 75.5196875 110.9921875 74.8596875 110.9921875 74.1796875 C110.3321875 74.1796875 109.6721875 74.1796875 108.9921875 74.1796875 C107.546875 72.67578125 107.546875 72.67578125 105.8671875 70.6171875 C102.69905888 66.86212137 99.29788514 63.72703093 95.49609375 60.625 C94.99980469 60.14804688 94.50351562 59.67109375 93.9921875 59.1796875 C93.9921875 58.5196875 93.9921875 57.8596875 93.9921875 57.1796875 C93.44691406 56.9321875 92.90164063 56.6846875 92.33984375 56.4296875 C89.49822856 54.91668108 87.03040038 53.07851307 84.4296875 51.1796875 C53.59138337 29.39015002 15.50374151 20.18435491 -21.8762207 26.56518555 C-52.95520135 32.66371165 -80.72207924 48.68075874 -102.0078125 72.1796875 C-102.3378125 72.8396875 -102.6678125 73.4996875 -103.0078125 74.1796875 C-103.6678125 74.1796875 -104.3278125 74.1796875 -105.0078125 74.1796875 C-105.24113281 74.69789063 -105.47445312 75.21609375 -105.71484375 75.75 C-107.09819864 78.34953697 -108.71069824 80.73178718 -110.38378906 83.15209961 C-123.98572341 102.88401964 -135.40995076 128.22573292 -135.0703125 152.6796875 C-135.06128906 153.535625 -135.05226562 154.3915625 -135.04296875 155.2734375 C-135.03136719 155.9025 -135.01976562 156.5315625 -135.0078125 157.1796875 C-133.85152344 156.43912109 -133.85152344 156.43912109 -132.671875 155.68359375 C-131.66898438 155.04292969 -130.66609375 154.40226563 -129.6328125 153.7421875 C-128.13621094 152.78505859 -128.13621094 152.78505859 -126.609375 151.80859375 C-122.30479603 149.11338439 -120.11755152 149.03547309 -115.140625 149.68359375 C-113.0078125 150.1796875 -113.0078125 150.1796875 -110.9453125 151.8046875 C-109.63159105 155.13278185 -109.71910381 157.61154415 -110.0078125 161.1796875 C-111.23248831 163.61745826 -112.39304051 165.60621654 -113.9453125 167.8046875 C-114.55656982 168.70973022 -114.55656982 168.70973022 -115.18017578 169.63305664 C-116.44144036 171.49243918 -117.72381379 173.3359588 -119.0078125 175.1796875 C-120.10416016 176.79810547 -120.10416016 176.79810547 -121.22265625 178.44921875 C-123.45089723 181.71703689 -125.71701105 184.95562994 -128.0078125 188.1796875 C-128.4704248 188.83243652 -128.93303711 189.48518555 -129.40966797 190.15771484 C-130.87178764 192.21265139 -132.3441948 194.25978824 -133.8203125 196.3046875 C-134.27647949 196.94462646 -134.73264648 197.58456543 -135.20263672 198.24389648 C-137.50335233 201.40239825 -139.58132826 204.22370676 -143.0078125 206.1796875 C-149.15932765 206.60392992 -149.15932765 206.60392992 -152.0078125 205.1796875 C-152.0078125 204.5196875 -152.0078125 203.8596875 -152.0078125 203.1796875 C-152.6678125 203.1796875 -153.3278125 203.1796875 -154.0078125 203.1796875 C-155.24462891 201.83447266 -155.24462891 201.83447266 -156.609375 199.96875 C-157.09921875 199.30101562 -157.5890625 198.63328125 -158.09375 197.9453125 C-158.60164063 197.23890625 -159.10953125 196.5325 -159.6328125 195.8046875 C-160.40625 194.75667969 -160.40625 194.75667969 -161.1953125 193.6875 C-165.0078125 188.44279101 -165.0078125 188.44279101 -165.0078125 186.1796875 C-165.6678125 186.1796875 -166.3278125 186.1796875 -167.0078125 186.1796875 C-168.7366571 183.96154726 -170.35448197 181.74362281 -171.9453125 179.4296875 C-172.82909618 178.16383141 -173.71320267 176.89820063 -174.59765625 175.6328125 C-175.01257324 175.03275391 -175.42749023 174.43269531 -175.85498047 173.81445312 C-176.8062475 172.46551538 -177.80887288 171.15295205 -178.82421875 169.8515625 C-180.0078125 168.1796875 -180.0078125 168.1796875 -180.0078125 166.1796875 C-180.6678125 166.1796875 -181.3278125 166.1796875 -182.0078125 166.1796875 C-185.27919242 160.94547963 -185.11425014 158.01363139 -184.0078125 152.1796875 C-183.3478125 152.1796875 -182.6878125 152.1796875 -182.0078125 152.1796875 C-182.0078125 151.5196875 -182.0078125 150.8596875 -182.0078125 150.1796875 C-180.57141079 149.98395142 -179.13361746 149.79840934 -177.6953125 149.6171875 C-176.89480469 149.51277344 -176.09429687 149.40835938 -175.26953125 149.30078125 C-173.0078125 149.1796875 -173.0078125 149.1796875 -170.0078125 150.1796875 C-170.0078125 150.8396875 -170.0078125 151.4996875 -170.0078125 152.1796875 C-169.4715625 152.2621875 -168.9353125 152.3446875 -168.3828125 152.4296875 C-165.1725694 153.44344848 -162.74488858 155.25129299 -160.0078125 157.1796875 C-160.03101563 156.03886719 -160.05421875 154.89804688 -160.078125 153.72265625 C-160.05811667 138.52633243 -155.59386462 123.52912732 -151.0078125 109.1796875 C-150.78254883 108.46184082 -150.55728516 107.74399414 -150.32519531 107.00439453 C-145.16992109 90.91053772 -136.24947347 76.52721558 -126.0078125 63.1796875 C-125.3478125 62.1896875 -124.6878125 61.1996875 -124.0078125 60.1796875 C-123.3478125 60.1796875 -122.6878125 60.1796875 -122.0078125 60.1796875 C-121.78222656 59.63828125 -121.55664062 59.096875 -121.32421875 58.5390625 C-119.60264271 55.45350783 -117.33886206 52.99837484 -114.9453125 50.4296875 C-114.4594165 49.9047168 -113.97352051 49.37974609 -113.47290039 48.83886719 C-109.26677859 44.35069023 -104.9449847 39.86900299 -100.0078125 36.1796875 C-99.3478125 36.1796875 -98.6878125 36.1796875 -98.0078125 36.1796875 C-98.0078125 35.5196875 -98.0078125 34.8596875 -98.0078125 34.1796875 C-95.671875 32.453125 -95.671875 32.453125 -92.6328125 30.5546875 C-91.63507813 29.92304687 -90.63734375 29.29140625 -89.609375 28.640625 C-87.0078125 27.1796875 -87.0078125 27.1796875 -85.0078125 27.1796875 C-85.0078125 26.5196875 -85.0078125 25.8596875 -85.0078125 25.1796875 C-57.4109864 10.24287048 -31.47617703 1.88039499 0 0 Z " fill="#262723" transform="translate(247.0078125,82.8203125)"/>
<path d="M0 0 C2.3181362 1.89111111 3.66914015 3.33828031 5 6 C5.25797575 9.95562822 5.09440189 12.59659693 3 16 C2.34 16 1.68 16 1 16 C1 16.66 1 17.32 1 18 C0.34 18 -0.32 18 -1 18 C-1 18.66 -1 19.32 -1 20 C-2.73391951 21.60634015 -4.538091 23.1375287 -6.375 24.625 C-7.37273437 25.44226563 -8.37046875 26.25953125 -9.3984375 27.1015625 C-12 29 -12 29 -14 29 C-14 29.66 -14 30.32 -14 31 C-15.69274284 32.56432787 -17.45569852 34.05328572 -19.25 35.5 C-20.22453125 36.2940625 -21.1990625 37.088125 -22.203125 37.90625 C-24.44894762 39.58748034 -26.4465803 40.88135899 -29 42 C-29 42.66 -29 43.32 -29 44 C-30.73391951 45.60634015 -32.538091 47.1375287 -34.375 48.625 C-35.37273437 49.44226563 -36.37046875 50.25953125 -37.3984375 51.1015625 C-40 53 -40 53 -42 53 C-42 53.66 -42 54.32 -42 55 C-42.66 55 -43.32 55 -44 55 C-44 55.66 -44 56.32 -44 57 C-45.73391951 58.60634015 -47.538091 60.1375287 -49.375 61.625 C-50.37273437 62.44226563 -51.37046875 63.25953125 -52.3984375 64.1015625 C-55 66 -55 66 -57 66 C-57 66.66 -57 67.32 -57 68 C-57.969375 68.598125 -58.93875 69.19625 -59.9375 69.8125 C-62.45695929 71.7857828 -62.9541599 72.71974181 -63.48046875 75.9375 C-63.57768741 78.20768716 -63.65812922 80.47864853 -63.72265625 82.75 C-64.11103756 87.30117248 -65.64936801 90.13283125 -68 94 C-68.66 94 -69.32 94 -70 94 C-70 94.66 -70 95.32 -70 96 C-70.66 96 -71.32 96 -72 96 C-72 96.66 -72 97.32 -72 98 C-78.67220395 101.6903054 -84.39434487 102.94637894 -92 102 C-98.53332474 99.96503 -104.46537207 96.00886748 -108 90 C-109.98628858 84.66838329 -110.49339309 79.63386066 -110 74 C-109.67 73.34 -109.34 72.68 -109 72 C-108.66659529 69.04195427 -108.66659529 69.04195427 -109 66 C-110.4166747 64.2488427 -110.4166747 64.2488427 -112 63 C-112 62.34 -112 61.68 -112 61 C-112.66 61 -113.32 61 -114 61 C-117 57.53846154 -117 57.53846154 -117 55 C-117.66 55 -118.32 55 -119 55 C-119 54.34 -119 53.68 -119 53 C-119.66 53 -120.32 53 -121 53 C-122.60634015 51.26608049 -124.1375287 49.461909 -125.625 47.625 C-126.44226563 46.62726563 -127.25953125 45.62953125 -128.1015625 44.6015625 C-130 42 -130 42 -130 40 C-130.66 40 -131.32 40 -132 40 C-133.56432787 38.30725716 -135.05328572 36.54430148 -136.5 34.75 C-137.2940625 33.77546875 -138.088125 32.8009375 -138.90625 31.796875 C-140.58748034 29.55105238 -141.88135899 27.5534197 -143 25 C-143.66 25 -144.32 25 -145 25 C-148.63840781 20.82653222 -149.64097292 17.65276706 -149.3984375 12.12109375 C-148.80063128 8.93865474 -147.32072342 7.18421028 -145 5 C-141.69296296 3.34648148 -138.54635369 3.23962188 -135 4 C-129.81949253 7.28890933 -125.64085745 12.1075978 -122 17 C-122 17.66 -122 18.32 -122 19 C-121.34 19 -120.68 19 -120 19 C-118.39365985 20.73391951 -116.8624713 22.538091 -115.375 24.375 C-114.55773437 25.37273437 -113.74046875 26.37046875 -112.8984375 27.3984375 C-111 30 -111 30 -111 32 C-110.34 32 -109.68 32 -109 32 C-109 32.66 -109 33.32 -109 34 C-108.34 34 -107.68 34 -107 34 C-105.08984375 36.08203125 -105.08984375 36.08203125 -102.9375 38.8125 C-102.22464844 39.70582031 -101.51179688 40.59914062 -100.77734375 41.51953125 C-99 44 -99 44 -98 47 C-97.34 47 -96.68 47 -96 47 C-95.17935205 48.10403716 -94.39342809 49.23400071 -93.625 50.375 C-90.71435059 53.95567514 -88.39835313 54.6450296 -83.875 55.3125 C-82.35519531 55.46138672 -82.35519531 55.46138672 -80.8046875 55.61328125 C-78.09309383 55.98716394 -76.34136493 56.62766888 -74 58 C-74 57.34 -74 56.68 -74 56 C-69.52941176 52 -69.52941176 52 -67 52 C-67 51.34 -67 50.68 -67 50 C-61.52380952 45 -61.52380952 45 -59 45 C-58.67 44.01 -58.34 43.02 -58 42 C-56.42945794 40.58303493 -54.79253336 39.23893184 -53.125 37.9375 C-47.92053262 33.80113899 -43.05123367 29.42992901 -38.21484375 24.87109375 C-36 23 -36 23 -34 23 C-34 22.34 -34 21.68 -34 21 C-32.4609375 19.44921875 -32.4609375 19.44921875 -30.375 17.6875 C-29.64796875 17.07132813 -28.9209375 16.45515625 -28.171875 15.8203125 C-27.09679687 14.91925781 -27.09679687 14.91925781 -26 14 C-25.11054688 13.22269531 -25.11054688 13.22269531 -24.203125 12.4296875 C-20.24428571 9 -20.24428571 9 -18 9 C-17.67 8.01 -17.34 7.02 -17 6 C-15.4765625 4.4296875 -15.4765625 4.4296875 -13.625 2.875 C-13.01914062 2.35679687 -12.41328125 1.83859375 -11.7890625 1.3046875 C-7.81389928 -1.59423066 -4.60763945 -1.05086514 0 0 Z M-92 73 C-93.70451315 75.3538515 -94.02057971 76.58840581 -93.875 79.5 C-92.78708789 82.60832032 -91.6321504 84.0258872 -89 86 C-86.5 86.66666667 -86.5 86.66666667 -84 86 C-81.54285631 84.54331238 -81.54285631 84.54331238 -80 82 C-79.25 78.5 -79.25 78.5 -80 75 C-82.18498756 72.46808501 -82.18498756 72.46808501 -85 71 C-88.17370278 71 -89.3794668 71.30933342 -92 73 Z " fill="#292A26" transform="translate(337,171)"/>
<path d="M0 0 C2.7265625 1.80078125 2.7265625 1.80078125 5 5 C5.71213298 8.8689917 5.65270965 12.63959917 5.5625 16.5625 C5.57345703 17.60341797 5.58441406 18.64433594 5.59570312 19.71679688 C5.52195531 27.36198687 5.52195531 27.36198687 3.11914062 30.29907227 C0.52386557 32.38216919 -0.77516601 32.48408197 -4.0625 32.375 C-4.91972656 32.36210937 -5.77695313 32.34921875 -6.66015625 32.3359375 C-9 32 -9 32 -12 30 C-13.62381415 25.57681016 -13.22330245 20.71121048 -13.25 16.0625 C-13.2809375 14.72155273 -13.2809375 14.72155273 -13.3125 13.35351562 C-13.34170638 8.43589185 -13.28917488 4.95179992 -10 1 C-6.84203893 -0.57898053 -3.39329364 -0.81928171 0 0 Z " fill="#282925" transform="translate(254,340)"/>
<path d="M0 0 C1.5778125 0.01933594 1.5778125 0.01933594 3.1875 0.0390625 C4.239375 0.02617188 5.29125 0.01328125 6.375 0 C9.1875 0.6640625 9.1875 0.6640625 11.03125 2.546875 C12.71857583 7.09581422 12.70074681 11.34884736 12.6875 16.1640625 C12.71585937 17.10121094 12.74421875 18.03835937 12.7734375 19.00390625 C12.78679231 23.71147533 12.7504001 25.93321515 9.8046875 29.7578125 C6.98168808 31.8139673 5.67116695 32.6640625 2.1875 32.6640625 C-1.5625 31.4140625 -1.5625 31.4140625 -4.8125 29.6640625 C-6.28660198 25.24175655 -6.03745829 20.92177833 -6.0625 16.2890625 C-6.083125 15.34289062 -6.10375 14.39671875 -6.125 13.421875 C-6.14735456 9.44276407 -6.04453326 6.29977006 -4.671875 2.5390625 C-2.8125 0.6640625 -2.8125 0.6640625 0 0 Z " fill="#2D2E2A" transform="translate(246.8125,124.3359375)"/>
<path d="M0 0 C0.84175781 -0.00257813 1.68351562 -0.00515625 2.55078125 -0.0078125 C7.26410374 0.06641305 10.76824826 0.3098345 14.5 3.5 C15.50796338 7.12866817 15.72683913 9.59264349 14.8125 13.25 C13.22544591 15.97066415 12.26791582 16.95450757 9.5 18.5 C6.5142152 18.94373599 3.57591021 18.91856738 0.5625 18.875 C-0.23607422 18.88660156 -1.03464844 18.89820313 -1.85742188 18.91015625 C-6.54354876 18.8868615 -9.70499692 18.54491441 -13.5 15.5 C-15.07898053 12.34203893 -15.31928171 8.89329364 -14.5 5.5 C-10.42475016 -0.26639603 -6.51951108 -0.21964662 0 0 Z " fill="#2A2A26" transform="translate(360.5,238.5)"/>
<path d="M0 0 C0 0.33 0 0.66 0 1 C-1.134375 1.12375 -2.26875 1.2475 -3.4375 1.375 C-5.2009375 1.684375 -5.2009375 1.684375 -7 2 C-7.33 2.66 -7.66 3.32 -8 4 C-8.66 4 -9.32 4 -10 4 C-10.33 11.26 -10.66 18.52 -11 26 C-11.66 26 -12.32 26 -13 26 C-13.0875127 22.77100574 -13.14056146 19.54231884 -13.1875 16.3125 C-13.21263672 15.40048828 -13.23777344 14.48847656 -13.26367188 13.54882812 C-13.35702951 4.99104477 -13.35702951 4.99104477 -10 1 C-6.78548731 -0.60725635 -3.56387464 -0.05748185 0 0 Z " fill="#4E4E4B" transform="translate(254,340)"/>
<path d="M0 0 C1.32 0.33 2.64 0.66 4 1 C4 1.66 4 2.32 4 3 C4.99 3 5.98 3 7 3 C6.6875 4.875 6.6875 4.875 6 7 C2.3558226 9.4294516 0.28758728 9.16179575 -4 9 C-4 7.35 -4 5.7 -4 4 C-3.01 4.33 -2.02 4.66 -1 5 C-0.67 3.35 -0.34 1.7 0 0 Z " fill="#1F1F1A" transform="translate(101,280)"/>
<path d="M0 0 C1.98 0 3.96 0 6 0 C6.33 0.99 6.66 1.98 7 3 C7.99 3.33 8.98 3.66 10 4 C9.67 4.99 9.34 5.98 9 7 C10.32 6.01 11.64 5.02 13 4 C13.33 5.32 13.66 6.64 14 8 C12.4375 8.75 12.4375 8.75 10 9 C6.26009296 7.16285268 2.59573985 5.35919274 0 2 C0 1.34 0 0.68 0 0 Z " fill="#444341" transform="translate(232,263)"/>
<path d="M0 0 C0.66 0 1.32 0 2 0 C2.185625 0.61875 2.37125 1.2375 2.5625 1.875 C4.71437233 5.05602866 7.37533763 5.19451947 11 6 C11 6.33 11 6.66 11 7 C9.8553125 7.12375 9.8553125 7.12375 8.6875 7.25 C5.47626739 8.14615794 4.70625501 9.21611025 3 12 C2.34 11.01 1.68 10.02 1 9 C0.34 9 -0.32 9 -1 9 C-1 7.68 -1 6.36 -1 5 C-0.34 4.67 0.32 4.34 1 4 C0.01 3.34 -0.98 2.68 -2 2 C-1.34 2 -0.68 2 0 2 C0 1.34 0 0.68 0 0 Z " fill="#353532" transform="translate(242,251)"/>
<path d="M0 0 C1.98 0.66 3.96 1.32 6 2 C2.29909479 5.9252025 -1.54959656 8.94580156 -6 12 C-5.36934243 8.78147169 -4.21979305 6.49198931 -2.4375 3.75 C-1.98246094 3.04359375 -1.52742188 2.3371875 -1.05859375 1.609375 C-0.53458984 0.81273437 -0.53458984 0.81273437 0 0 Z " fill="#464641" transform="translate(287,225)"/>
<path d="M0 0 C3.74525799 3.74525799 3.68909949 7.98270909 4 13 C0.72257902 9.89973691 -1.93104837 7.02901106 -4 3 C-4 2.34 -4 1.68 -4 1 C-3.01 1.33 -2.02 1.66 -1 2 C-0.67 1.34 -0.34 0.68 0 0 Z " fill="#464741" transform="translate(116,332)"/>
<path d="M0 0 C0.99 0 1.98 0 3 0 C3 0.66 3 1.32 3 2 C2.34 2 1.68 2 1 2 C0.7525 2.5775 0.505 3.155 0.25 3.75 C-1.16683317 6.3002997 -2.87627537 8.01785701 -5 10 C-5.625 7.6875 -5.625 7.6875 -6 5 C-5.34 4.01 -4.68 3.02 -4 2 C-2.68 2 -1.36 2 0 2 C0 1.34 0 0.68 0 0 Z " fill="#3F403D" transform="translate(376,347)"/>
<path d="M0 0 C0.66 0 1.32 0 2 0 C2.33 0.99 2.66 1.98 3 3 C-0.3 5.64 -3.6 8.28 -7 11 C-7.66 9.68 -8.32 8.36 -9 7 C-7.2421875 6.05598958 -5.484375 5.11197917 -3.7265625 4.16796875 C-1.69497635 2.95236507 -1.69497635 2.95236507 0 0 Z " fill="#3F3F3A" transform="translate(163,133)"/>
<path d="M0 0 C0 0.33 0 0.66 0 1 C-1.98 1.33 -3.96 1.66 -6 2 C-6.33 3.32 -6.66 4.64 -7 6 C-9.31 5.67 -11.62 5.34 -14 5 C-12.30378722 2.1729787 -11.1660755 1.07581708 -8.125 -0.3125 C-4.94206666 -1.01274533 -3.0927971 -0.90964621 0 0 Z " fill="#484846" transform="translate(126,316)"/>
<path d="M0 0 C0 0.99 0 1.98 0 3 C0.3062434 4.33981486 0.63451555 5.67511887 1 7 C0.34 7 -0.32 7 -1 7 C-1 7.66 -1 8.32 -1 9 C-2.98 9.66 -4.96 10.32 -7 11 C-3.57894737 1.78947368 -3.57894737 1.78947368 0 0 Z " fill="#474744" transform="translate(374,314)"/>
<path d="M0 0 C0.80824219 0.10183594 1.61648437 0.20367187 2.44921875 0.30859375 C3.06410156 0.39238281 3.67898437 0.47617188 4.3125 0.5625 C3.9825 1.2225 3.6525 1.8825 3.3125 2.5625 C2.3225 2.5625 1.3325 2.5625 0.3125 2.5625 C0.3125 1.9025 0.3125 1.2425 0.3125 0.5625 C-0.6775 0.5625 -1.6675 0.5625 -2.6875 0.5625 C-2.6875 1.2225 -2.6875 1.8825 -2.6875 2.5625 C-3.3475 3.2225 -4.0075 3.8825 -4.6875 4.5625 C-5.6775 4.5625 -6.6675 4.5625 -7.6875 4.5625 C-8.3475 5.2225 -9.0075 5.8825 -9.6875 6.5625 C-9.6875 5.2425 -9.6875 3.9225 -9.6875 2.5625 C-9.0275 2.5625 -8.3675 2.5625 -7.6875 2.5625 C-7.6875 1.9025 -7.6875 1.2425 -7.6875 0.5625 C-4.59271121 -0.46909626 -3.16118607 -0.41232862 0 0 Z " fill="#4F4E4C" transform="translate(72.6875,232.4375)"/>
<path d="M0 0 C1.0625 1.875 1.0625 1.875 2 4 C1.67 4.66 1.34 5.32 1 6 C-1.06640625 6.6328125 -1.06640625 6.6328125 -3.5625 7.125 C-4.38878906 7.29257813 -5.21507812 7.46015625 -6.06640625 7.6328125 C-6.70449219 7.75398438 -7.34257812 7.87515625 -8 8 C-5.92856799 3.96615872 -4.03384128 2.07143201 0 0 Z " fill="#1E1F1A" transform="translate(149,120)"/>
<path d="M0 0 C0.763125 0.0825 1.52625 0.165 2.3125 0.25 C0.68910195 1.95884005 -0.98069053 3.62446717 -2.6875 5.25 C-3.3475 5.25 -4.0075 5.25 -4.6875 5.25 C-4.6875 7.56 -4.6875 9.87 -4.6875 12.25 C-5.0175 12.25 -5.3475 12.25 -5.6875 12.25 C-6.04940476 5.01190476 -6.04940476 5.01190476 -4.5 1.75 C-2.6875 0.25 -2.6875 0.25 0 0 Z " fill="#424240" transform="translate(351.6875,239.75)"/>
<path d="M0 0 C1.32 0 2.64 0 4 0 C4 0.66 4 1.32 4 2 C4.66 2 5.32 2 6 2 C6 2.66 6 3.32 6 4 C4.35 4.33 2.7 4.66 1 5 C1 4.34 1 3.68 1 3 C0.34 3 -0.32 3 -1 3 C-0.67 2.01 -0.34 1.02 0 0 Z M5 0 C6.32 0 7.64 0 9 0 C9 0.66 9 1.32 9 2 C7.68 1.67 6.36 1.34 5 1 C5 0.67 5 0.34 5 0 Z " fill="#1D1E19" transform="translate(370,345)"/>
<path d="M0 0 C0.66 0.33 1.32 0.66 2 1 C0.25 5.875 0.25 5.875 -2 7 C-2.40729228 9.32156597 -2.74438677 11.6568787 -3 14 C-3.33 14 -3.66 14 -4 14 C-4.63019694 5.96498906 -4.63019694 5.96498906 -2 1.9375 C-1.34 1.298125 -0.68 0.65875 0 0 Z " fill="#646462" transform="translate(192,176)"/>
<path d="M0 0 C0.33 0.66 0.66 1.32 1 2 C0.67 2.99 0.34 3.98 0 5 C0.66 5.33 1.32 5.66 2 6 C0.02 6.99 -1.96 7.98 -4 9 C-4.66 8.34 -5.32 7.68 -6 7 C-4.02 4.69 -2.04 2.38 0 0 Z " fill="#444441" transform="translate(131,134)"/>
<path d="M0 0 C2.64 0 5.28 0 8 0 C8 0.99 8 1.98 8 3 C5.1875 3.625 5.1875 3.625 2 4 C1.01 3.34 0.02 2.68 -1 2 C-0.67 1.34 -0.34 0.68 0 0 Z " fill="#2F302C" transform="translate(194,175)"/>
<path d="M0 0 C1.32 0.66 2.64 1.32 4 2 C2.84826645 4.46800047 1.95216435 6.04783565 0 8 C-0.99 6.68 -1.98 5.36 -3 4 C-2.34 3.67 -1.68 3.34 -1 3 C-0.67 2.01 -0.34 1.02 0 0 Z " fill="#363732" transform="translate(346,138)"/>
<path d="M0 0 C3.53600465 1.91135386 5.78972846 3.62642766 8 7 C4.65626525 6.44271087 1.96687001 5.64826111 -1 4 C-0.67 2.68 -0.34 1.36 0 0 Z " fill="#4A4E46" transform="translate(146,342)"/>
<path d="M0 0 C3 2 3 2 3.6875 4.125 C3.790625 4.74375 3.89375 5.3625 4 6 C1.66666667 6 -0.66666667 6 -3 6 C-1.125 1.125 -1.125 1.125 0 0 Z " fill="#474745" transform="translate(107,168)"/>
<path d="M0 0 C0.66 0.33 1.32 0.66 2 1 C2 2.32 2 3.64 2 5 C-0.6666419 6.33332095 -2.16680303 5.67102033 -5 5 C-4.01 4.67 -3.02 4.34 -2 4 C-2.33 3.01 -2.66 2.02 -3 1 C-2.01 0.67 -1.02 0.34 0 0 Z " fill="#444442" transform="translate(285,106)"/>
<path d="M0 0 C1.0725 0.53625 2.145 1.0725 3.25 1.625 C3.25 1.955 3.25 2.285 3.25 2.625 C1.79207116 2.67899736 0.33357288 2.71779177 -1.125 2.75 C-1.93710938 2.77320312 -2.74921875 2.79640625 -3.5859375 2.8203125 C-5.75 2.625 -5.75 2.625 -7.75 0.625 C-4.61227723 -1.75966931 -3.83407554 -1.4058277 0 0 Z " fill="#494944" transform="translate(227.75,106.375)"/>
<path d="M0 0 C2.95183101 2.95183101 3.08663988 5.95511947 4 10 C3.01 9.67 2.02 9.34 1 9 C1 8.34 1 7.68 1 7 C0.34 6.67 -0.32 6.34 -1 6 C-1 1 -1 1 0 0 Z " fill="#464641" transform="translate(403,192)"/>
<path d="M0 0 C0.66 0 1.32 0 2 0 C1.49701212 4.40114397 -0.08772731 6.71195019 -3 10 C-3.33 8.35 -3.66 6.7 -4 5 C-3.34 4.67 -2.68 4.34 -2 4 C-0.86649466 1.98330173 -0.86649466 1.98330173 0 0 Z " fill="#5A5A58" transform="translate(137,159)"/>
<path d="M0 0 C3.35595828 0.59927826 5.37801226 1.84622436 8 4 C6.02 4.99 4.04 5.98 2 7 C1 4 1 4 2 1 C1.34 0.67 0.68 0.34 0 0 Z " fill="#393B35" transform="translate(325,385)"/>
<path d="M0 0 C1.8871875 0.061875 1.8871875 0.061875 3.8125 0.125 C3.8125 0.455 3.8125 0.785 3.8125 1.125 C2.678125 1.24875 1.54375 1.3725 0.375 1.5 C-1.3884375 1.809375 -1.3884375 1.809375 -3.1875 2.125 C-3.5175 2.785 -3.8475 3.445 -4.1875 4.125 C-4.8475 4.125 -5.5075 4.125 -6.1875 4.125 C-6.1875 4.785 -6.1875 5.445 -6.1875 6.125 C-6.8475 6.125 -7.5075 6.125 -8.1875 6.125 C-7.875 4.25 -7.875 4.25 -7.1875 2.125 C-4.09861478 0.06574319 -3.47814073 -0.1140374 0 0 Z " fill="#60605D" transform="translate(250.1875,339.875)"/>
<path d="M0 0 C0.66 0.33 1.32 0.66 2 1 C1.39009109 4.55780196 0.4216319 7.6828589 -1 11 C-1.33 11 -1.66 11 -2 11 C-2.28571429 3.57142857 -2.28571429 3.57142857 0 0 Z " fill="#3F3E3C" transform="translate(386,281)"/>
<path d="M0 0 C0.99 0.33 1.98 0.66 3 1 C2.34 2.32 1.68 3.64 1 5 C0.34 5 -0.32 5 -1 5 C-1 5.66 -1 6.32 -1 7 C-1.66 7 -2.32 7 -3 7 C-3 5.35 -3 3.7 -3 2 C-2.01 2 -1.02 2 0 2 C0 1.34 0 0.68 0 0 Z " fill="#4C4C4A" transform="translate(268,260)"/>
<path d="M0 0 C-0.33 1.65 -0.66 3.3 -1 5 C-3.97 4.505 -3.97 4.505 -7 4 C-7 3.34 -7 2.68 -7 2 C-4 0 -4 0 0 0 Z " fill="#1E1D1B" transform="translate(284,105)"/>
<path d="M0 0 C0.66 0.33 1.32 0.66 2 1 C0.35 2.65 -1.3 4.3 -3 6 C-3.99 5.34 -4.98 4.68 -6 4 C-4.02 2.68 -2.04 1.36 0 0 Z " fill="#636460" transform="translate(327,364)"/>
<path d="M0 0 C1.98 0 3.96 0 6 0 C5.01 0.495 5.01 0.495 4 1 C4 1.66 4 2.32 4 3 C4.66 3 5.32 3 6 3 C6.33 3.99 6.66 4.98 7 6 C6.01 6 5.02 6 4 6 C4 5.34 4 4.68 4 4 C3.34 4 2.68 4 2 4 C1.34 2.68 0.68 1.36 0 0 Z " fill="#52524D" transform="translate(121,347)"/>
<path d="M0 0 C0.125 3.375 0.125 3.375 0 7 C-0.66 7.66 -1.32 8.32 -2 9 C-2.99 7.02 -3.98 5.04 -5 3 C-1.125 0 -1.125 0 0 0 Z " fill="#5A5A55" transform="translate(137,237)"/>
<path d="M0 0 C2.97 0.495 2.97 0.495 6 1 C5.67 1.99 5.34 2.98 5 4 C2.9375 4.6875 2.9375 4.6875 1 5 C0.67 3.35 0.34 1.7 0 0 Z " fill="#1D1D1A" transform="translate(386,209)"/>
<path d="M0 0 C2.64 1.65 5.28 3.3 8 5 C7.01 5.66 6.02 6.32 5 7 C3.29115995 5.37660195 1.62553283 3.70680947 0 2 C0 1.34 0 0.68 0 0 Z " fill="#54524F" transform="translate(336,108)"/>
<path d="M0 0 C0.99 0.33 1.98 0.66 3 1 C1.69593116 3.01920337 0.36176581 5.01924973 -1 7 C-1.33 7 -1.66 7 -2 7 C-2 5.02 -2 3.04 -2 1 C-1.34 0.67 -0.68 0.34 0 0 Z " fill="#494946" transform="translate(381,340)"/>
<path d="M0 0 C0.99 0.33 1.98 0.66 3 1 C3 1.66 3 2.32 3 3 C2.34 3 1.68 3 1 3 C0.34 4.32 -0.32 5.64 -1 7 C-1.66 6.01 -2.32 5.02 -3 4 C-2.67 3.34 -2.34 2.68 -2 2 C-1.34 2 -0.68 2 0 2 C0 1.34 0 0.68 0 0 Z " fill="#3D3E3A" transform="translate(141,154)"/>
<path d="M0 0 C0.99 0.33 1.98 0.66 3 1 C1.71937515 2.7074998 0.38232443 4.37373596 -1 6 C-1.66 6 -2.32 6 -3 6 C-2.625 3.5625 -2.625 3.5625 -2 1 C-1.34 0.67 -0.68 0.34 0 0 Z " fill="#1E1F19" transform="translate(134,133)"/>
<path d="M0 0 C1.5 1.375 1.5 1.375 3 3 C3 3.66 3 4.32 3 5 C3.66 5 4.32 5 5 5 C4.67 5.66 4.34 6.32 4 7 C2.35 6.67 0.7 6.34 -1 6 C-0.67 4.02 -0.34 2.04 0 0 Z " fill="#4B4C48" transform="translate(141,334)"/>
<path d="M0 0 C1.98 0.66 3.96 1.32 6 2 C6 3.98 6 5.96 6 8 C5.5875 7.401875 5.175 6.80375 4.75 6.1875 C3.0092701 4.01158763 1.28304179 2.57451158 -1 1 C-0.67 0.67 -0.34 0.34 0 0 Z " fill="#191917" transform="translate(130,235)"/>
<path d="M0 0 C1.32 0 2.64 0 4 0 C3.34 1.32 2.68 2.64 2 4 C1.34 4 0.68 4 0 4 C-0.33 4.66 -0.66 5.32 -1 6 C-1.33 5.01 -1.66 4.02 -2 3 C-1.34 2.01 -0.68 1.02 0 0 Z " fill="#464645" transform="translate(323,196)"/>
<path d="M0 0 C0.66 0 1.32 0 2 0 C2.33 0.99 2.66 1.98 3 3 C1.02 4.32 -0.96 5.64 -3 7 C-2.38722388 4.03824877 -1.74627478 2.61941217 0 0 Z " fill="#565654" transform="translate(163,133)"/>
<path d="M0 0 C2.64 0.33 5.28 0.66 8 1 C8 1.33 8 1.66 8 2 C3.545 2.495 3.545 2.495 -1 3 C-0.67 2.01 -0.34 1.02 0 0 Z " fill="#494945" transform="translate(281,405)"/>
<path d="M0 0 C2.49361571 1.20381448 4.68143083 2.45428722 7 4 C6.67 4.66 6.34 5.32 6 6 C3.97945196 4.35830472 1.97956942 2.69088222 0 1 C0 0.67 0 0.34 0 0 Z M6 0 C6.66 0.66 7.32 1.32 8 2 C7.01 2 6.02 2 5 2 C5.33 1.34 5.66 0.68 6 0 Z " fill="#636460" transform="translate(144,371)"/>
<path d="M0 0 C0.625 1.875 0.625 1.875 1 4 C0.34 4.66 -0.32 5.32 -1 6 C-3.125 5.625 -3.125 5.625 -5 5 C-3.625 3.5 -3.625 3.5 -2 2 C-1.34 2 -0.68 2 0 2 C0 1.34 0 0.68 0 0 Z " fill="#484847" transform="translate(350,345)"/>
<path d="M0 0 C0.99 0.33 1.98 0.66 3 1 C0.28817788 3.60334924 -0.89133813 3.99456691 -4.75 4.1875 C-5.8225 4.125625 -6.895 4.06375 -8 4 C-8 3.67 -8 3.34 -8 3 C-6.02 3 -4.04 3 -2 3 C-2 2.34 -2 1.68 -2 1 C-1.34 0.67 -0.68 0.34 0 0 Z " fill="#6C6B68" transform="translate(105,285)"/>
<path d="M0 0 C1.32 0.66 2.64 1.32 4 2 C3.67 3.65 3.34 5.3 3 7 C1.68 5.35 0.36 3.7 -1 2 C-0.67 1.34 -0.34 0.68 0 0 Z " fill="#434341" transform="translate(116,193)"/>
<path d="M0 0 C4.455 0.99 4.455 0.99 9 2 C5.8035914 3.06546953 3.34252724 3.07427838 0 3 C0 2.01 0 1.02 0 0 Z " fill="#5A5A58" transform="translate(294,90)"/>
</svg>
