<?xml version="1.0" encoding="UTF-8"?>
<svg version="1.1" xmlns="http://www.w3.org/2000/svg" width="500" height="500">
<path d="M0 0 C0.97127362 -0.00445784 1.94254724 -0.00891569 2.9432534 -0.01350862 C4.0127879 -0.01332426 5.0823224 -0.01313989 6.18426704 -0.01294994 C7.88566155 -0.01846498 7.88566155 -0.01846498 9.62142766 -0.02409142 C13.44227487 -0.03515116 17.26309492 -0.03897595 21.08395576 -0.04278088 C23.81516949 -0.04851048 26.54637912 -0.05567728 29.2775898 -0.0626936 C37.48703327 -0.08245513 45.69647797 -0.09252281 53.90593928 -0.10142139 C57.77053736 -0.1058039 61.63513407 -0.11117072 65.49973106 -0.11641026 C78.34335928 -0.13342053 91.18698664 -0.14791599 104.03062439 -0.155159 C107.36350569 -0.15706893 110.69638699 -0.15898926 114.02926826 -0.16094494 C115.27184254 -0.16167055 115.27184254 -0.16167055 116.53951932 -0.16241082 C129.96696882 -0.17071601 143.39432938 -0.19606203 156.82174002 -0.22852562 C170.60236216 -0.26157209 184.38293905 -0.27960548 198.16360104 -0.28280324 C205.90304781 -0.28497034 213.64236479 -0.29374833 221.38177299 -0.31926441 C227.97103481 -0.34093834 234.5601353 -0.34903815 241.14942871 -0.33929763 C244.5122127 -0.33474342 247.87439286 -0.33887128 251.2371769 -0.35605907 C254.88112018 -0.37364589 258.52421121 -0.36673621 262.16815376 -0.35352612 C263.23322682 -0.36449536 264.29829988 -0.37546461 265.39564788 -0.38676625 C272.54984691 -0.32389877 272.54984691 -0.32389877 276.43663406 2.03970528 C279.18533641 5.12409611 279.42853255 6.78307752 279.4318285 10.82174492 C279.43505295 11.81642786 279.43827739 12.8111108 279.44159955 13.83593565 C279.44005095 14.9367821 279.43850234 16.03762856 279.43690681 17.17183399 C279.43917237 18.33508872 279.44143793 19.49834346 279.44377214 20.69684833 C279.4490247 23.9358148 279.44975405 27.17474656 279.44857776 30.41371596 C279.44837428 33.90332384 279.45388768 37.39292334 279.45863533 40.88252735 C279.46695519 47.72464702 279.46969082 54.56675808 279.47024771 61.40888239 C279.47072245 66.97178378 279.47277514 72.53468232 279.47594833 78.09758282 C279.48476032 93.86671012 279.48936713 109.63583062 279.48861786 125.4049604 C279.48855793 126.68113853 279.48855793 126.68113853 279.48849678 127.98309803 C279.4884559 128.83492206 279.48841502 129.68674609 279.4883729 130.56438296 C279.48796678 144.35775493 279.49752621 158.15109956 279.51163515 171.94446362 C279.52600508 186.10475773 279.53290492 200.26503852 279.53204137 214.42534012 C279.5317095 222.37615419 279.53445178 230.32693964 279.54521942 238.27774715 C279.55433278 245.05060926 279.55649299 251.82342978 279.54971 258.59629536 C279.54644835 262.05053286 279.54637508 265.5046906 279.55506325 268.95892048 C279.56277636 272.70859242 279.55814252 276.45805525 279.55043221 280.20772266 C279.55557577 281.29295406 279.56071933 282.37818546 279.56601876 283.49630266 C279.52566149 292.38545078 278.36793367 299.77264831 274.17819405 307.69672108 C273.36995186 309.24552967 273.36995186 309.24552967 272.54538155 310.82562733 C271.93049873 311.96838123 271.93049873 311.96838123 271.30319405 313.13422108 C270.64319405 313.13422108 269.98319405 313.13422108 269.30319405 313.13422108 C269.03506905 313.73234608 268.76694405 314.33047108 268.49069405 314.94672108 C267.30401998 317.13269961 266.20720292 318.54754702 264.30319405 320.13422108 C263.64319405 320.13422108 262.98319405 320.13422108 262.30319405 320.13422108 C262.30319405 320.79422108 262.30319405 321.45422108 262.30319405 322.13422108 C250.5960883 328.99046588 241.16741446 331.28655363 227.65809822 331.27466297 C226.59744929 331.27763409 225.53680036 331.28060522 224.44401056 331.28366637 C220.89600573 331.29232619 217.34803476 331.29385931 213.80002022 331.29535389 C211.25366837 331.29998391 208.70731722 331.30500882 206.16096687 331.31039906 C199.24770702 331.32350553 192.33445827 331.33000138 185.42118812 331.33440971 C181.1011631 331.33717725 176.7811403 331.34141546 172.46111679 331.34591389 C160.4897542 331.35810075 148.51839338 331.36840207 136.54702473 331.37178898 C135.78170727 331.37200854 135.01638981 331.37222811 134.22788091 331.37245433 C133.07723814 331.37278175 133.07723814 331.37278175 131.90335006 331.37311578 C130.34905 331.37355924 128.79474995 331.3740058 127.24044991 331.37445545 C126.08398257 331.3747876 126.08398257 331.3747876 124.90415225 331.37512645 C112.41153034 331.37907453 99.91896675 331.39653144 87.42636736 331.41981497 C74.58689425 331.44355109 61.74745039 331.45599181 48.90795499 331.4571569 C41.70443021 331.45807224 34.5009815 331.46378939 27.29747772 331.48197651 C20.52180095 331.4990239 13.74629299 331.5006133 6.9705925 331.4918375 C4.48660712 331.49106711 2.00261398 331.49541006 -0.48135185 331.50529575 C-3.87799233 331.51801899 -7.27412198 331.51213595 -10.6707592 331.50171375 C-12.13737416 331.51379836 -12.13737416 331.51379836 -13.6336177 331.5261271 C-25.19476832 331.44343077 -34.36893892 327.99378027 -42.86086845 320.13031483 C-52.19293824 310.36135039 -54.84905695 300.11287176 -54.83724785 287.01315784 C-54.84021897 285.98476949 -54.84319009 284.95638113 -54.84625125 283.89682949 C-54.85493237 280.44616664 -54.856446 276.99553851 -54.85793877 273.54486561 C-54.86256727 271.07275792 -54.86759198 268.60065095 -54.87298393 266.12854481 C-54.88610492 259.40957558 -54.89258883 252.69061992 -54.89699459 245.97164106 C-54.89975943 241.77527236 -54.90399717 237.57890595 -54.90849876 233.3825388 C-54.92068787 221.76039048 -54.93098867 210.13824401 -54.93437386 198.51608944 C-54.93459342 197.77268794 -54.93481299 197.02928645 -54.93503921 196.26335763 C-54.93525749 195.51819945 -54.93547576 194.77304128 -54.93570065 194.00530255 C-54.93614412 192.49537825 -54.93659068 190.98545396 -54.93704033 189.47552967 C-54.93737247 188.35207281 -54.93737247 188.35207281 -54.93771133 187.20591985 C-54.94166034 175.06680227 -54.95911911 162.92774469 -54.98239985 150.78865029 C-55.00611744 138.32102899 -55.01857585 125.85343779 -55.01974177 113.38579357 C-55.02065818 106.38745502 -55.02640194 99.38919471 -55.04456139 92.39087772 C-55.06157839 85.80977654 -55.06321198 79.22879764 -55.05442238 72.6476717 C-55.05365047 70.23176775 -55.05801492 67.8158559 -55.06788063 65.39997196 C-55.08055584 62.10288725 -55.07474705 58.80633242 -55.06429863 55.50925159 C-55.07235503 54.55253311 -55.08041144 53.59581463 -55.08871198 52.61010468 C-55.02560362 44.09966473 -52.6446502 38.24190474 -46.7319622 32.00140858 C-37.5329877 23.56165845 -27.2675293 24.59469139 -15.46584892 25.05487537 C-14.88206474 25.08105946 -14.29828056 25.10724354 -13.69680595 25.13422108 C-13.68262627 23.82066639 -13.66844658 22.5071117 -13.6538372 21.15375233 C-13.60692608 19.41804057 -13.55867874 17.68236456 -13.50930595 15.94672108 C-13.50350517 15.08240467 -13.49770439 14.21808826 -13.49172783 13.32758045 C-13.33666794 8.83084378 -13.16301963 6.73606055 -10.3335247 3.08343983 C-6.79553088 0.46794513 -4.27858011 0.00910314 0 0 Z M4.30319405 18.13422108 C3.4740724 55.32969544 3.4740724 55.32969544 3.12961006 92.52216053 C3.12325199 94.7773751 3.11648125 97.03258854 3.10934639 99.28780079 C3.09506424 104.01456731 3.08319645 108.74133027 3.07339859 113.46810818 C3.05751996 120.95629533 3.03360242 128.44444552 3.00850105 135.9326067 C2.9361104 157.85481039 2.87383869 179.77702908 2.82155872 201.69928858 C2.79475595 212.85749931 2.76026856 224.01567403 2.71973366 235.17384404 C2.693126 242.60877042 2.67512574 250.04365003 2.66369641 257.47861445 C2.65455355 262.08436926 2.63719099 266.69006612 2.61751747 271.29578686 C2.61007027 273.42138602 2.60596262 275.54700003 2.60552216 277.67261219 C2.5963302 302.21497632 2.5963302 302.21497632 -2.69680595 314.13422108 C27.5631088 314.22555482 57.82301647 314.29630275 88.08303802 314.33848239 C91.65894638 314.34348497 95.23485446 314.34866228 98.81076241 314.35394764 C99.52263392 314.35499688 100.23450544 314.35604612 100.96794882 314.35712716 C112.48067707 314.3745123 123.99332508 314.4060395 135.5060058 314.44283226 C147.32711363 314.48029444 159.14817956 314.50246806 170.96934432 314.51057506 C177.60574366 314.5155616 184.241994 314.52801236 190.87833786 314.5571413 C197.12864759 314.58435276 203.37870122 314.59265434 209.62906456 314.5866518 C211.91912733 314.58774946 214.20919893 314.59566886 216.49921036 314.61104298 C236.13126947 314.8525752 236.13126947 314.8525752 253.30319405 306.13422108 C253.30319405 305.47422108 253.30319405 304.81422108 253.30319405 304.13422108 C253.96319405 304.13422108 254.62319405 304.13422108 255.30319405 304.13422108 C261.0407494 296.60367968 261.59446382 290.1477011 261.54370308 281.01059437 C261.54541193 279.88657447 261.54712078 278.76255458 261.54888141 277.60447347 C261.55217677 273.83649254 261.54117164 270.06868952 261.53024483 266.30072498 C261.52968072 263.60036283 261.52990918 260.90001159 261.53112984 258.19965076 C261.53217775 252.38513439 261.52591091 246.57066295 261.51465416 240.75615788 C261.49838948 232.34940068 261.49319016 223.94266518 261.49067818 215.53589396 C261.48630259 201.89596855 261.4729972 188.25606708 261.45407295 174.61615467 C261.43571062 161.36745795 261.42157878 148.11876777 261.41305733 134.87006092 C261.41252133 134.04487308 261.41198534 133.21968523 261.4114331 132.3694917 C261.40727418 125.91583327 261.40336035 119.4621747 261.39952397 113.00851607 C261.38066185 81.3837291 261.340424 49.75900207 261.30319405 18.13422108 C176.49319405 18.13422108 91.68319405 18.13422108 4.30319405 18.13422108 Z M-35.69680595 46.13422108 C-36.84031185 48.42123286 -36.82495156 49.68933577 -36.83102703 52.23107815 C-36.83548487 53.09400876 -36.83994272 53.95693937 -36.84453565 54.84601939 C-36.84435129 55.79969192 -36.84416692 56.75336446 -36.84397697 57.73593616 C-36.84765366 58.74472147 -36.85133035 59.75350678 -36.85511845 60.79286134 C-36.86618887 64.19522719 -36.87000483 67.59756254 -36.87380791 70.99994373 C-36.88007007 73.43057827 -36.88671665 75.86121185 -36.89372063 78.29184437 C-36.91297443 85.60293855 -36.92355358 92.91403022 -36.93244842 100.22514206 C-36.93683059 103.66796399 -36.94219767 107.11078437 -36.94743729 110.55360508 C-36.96445233 121.9989137 -36.97894568 133.44422135 -36.98618603 144.88954067 C-36.98809594 147.8605865 -36.99001626 150.83163231 -36.99197197 153.80267811 C-36.99245571 154.54112109 -36.99293945 155.27956406 -36.99343785 156.0403841 C-37.00173499 167.99797432 -37.02706528 179.9554644 -37.05955265 191.91301091 C-37.09263469 204.18956959 -37.11063591 216.46607742 -37.11383027 228.74268091 C-37.11599456 235.63549116 -37.124731 242.52815548 -37.15029144 249.42092228 C-37.17428726 255.90679539 -37.17781686 262.39247723 -37.16753006 268.8783884 C-37.16703387 271.25839835 -37.1733787 273.63842109 -37.18708611 276.01839161 C-37.20476192 279.26944456 -37.1977192 282.51955068 -37.18455315 285.77060413 C-37.19552239 286.71089234 -37.20649164 287.65118055 -37.21779329 288.61996233 C-37.14319374 296.25803144 -34.76307379 301.5520766 -30.25930595 307.63422108 C-27.96280105 310.27778101 -27.96280105 310.27778101 -25.19680595 310.82172108 C-20.75670207 309.60069251 -18.54689704 306.31827652 -15.94680595 302.69672108 C-13.06910528 296.7974347 -13.55714602 290.26160806 -13.57655144 283.84579945 C-13.57569701 282.8116177 -13.57484259 281.77743596 -13.57396227 280.71191537 C-13.5723157 277.24801135 -13.57781541 273.78415579 -13.58328056 270.32025623 C-13.58356264 267.83664418 -13.5834043 265.35303205 -13.58283806 262.86942005 C-13.58261037 257.52309643 -13.58544607 252.17678788 -13.5910759 246.83046818 C-13.59921033 239.10063282 -13.60180811 231.37080337 -13.60306389 223.6409642 C-13.60525135 211.09916236 -13.61190316 198.55736703 -13.6213665 186.01556873 C-13.63054852 173.83392844 -13.63762549 161.65228992 -13.64187431 149.47064686 C-13.64213704 148.71950031 -13.64239976 147.96835377 -13.64267045 147.19444521 C-13.6439755 143.42608307 -13.64523921 139.65772092 -13.64648235 135.88935876 C-13.65684544 104.63764146 -13.6745299 73.38593226 -13.69680595 42.13422108 C-16.42704485 42.02585437 -19.15295138 41.94675413 -21.88430595 41.88422108 C-22.65323174 41.85070545 -23.42215752 41.81718983 -24.21438408 41.78265858 C-29.33105539 41.69481873 -31.99636437 42.25414641 -35.69680595 46.13422108 Z " fill="#282A27" transform="translate(137.6968059539795,84.86577892303467)"/>
<path d="M0 0 C1.23718634 0.00464581 1.23718634 0.00464581 2.49936634 0.00938547 C3.3728387 0.00485435 4.24631106 0.00032324 5.14625227 -0.00434518 C8.09047163 -0.01706545 11.03450782 -0.01536392 13.97875172 -0.01371634 C16.08252918 -0.0196968 18.18630445 -0.02650122 20.29007679 -0.03407156 C26.01726153 -0.05178705 31.74438657 -0.05642925 37.47159606 -0.05770314 C42.24573568 -0.05959835 47.01986126 -0.06695144 51.7939955 -0.07404733 C63.05317924 -0.09034969 74.31233098 -0.09521456 85.57152516 -0.09379447 C97.20271498 -0.09259229 108.83371945 -0.11370507 120.46486235 -0.14528179 C130.43685045 -0.17139374 140.40877783 -0.18216391 150.38079989 -0.18088365 C156.34286277 -0.18037255 162.30476101 -0.18613703 168.26678997 -0.20723975 C173.87200797 -0.22653688 179.47690284 -0.22680524 185.08213192 -0.21220648 C187.14333906 -0.21010671 189.20456598 -0.21488822 191.26573902 -0.2269274 C194.07194639 -0.242261 196.87702292 -0.23315111 199.68320423 -0.21766531 C200.91704449 -0.233096 200.91704449 -0.233096 202.17581081 -0.24883842 C207.65793111 -0.18162539 207.65793111 -0.18162539 210.1637426 2.13046968 C211.53789555 5.10655299 211.47725131 7.36872991 211.40477711 10.651811 C211.39164479 11.31011911 211.37851246 11.96842721 211.36498219 12.64668405 C211.32965786 14.21904756 211.28633476 15.79124121 211.23729664 17.36323678 C211.13784947 20.8744869 211.08396955 24.38573163 211.02587086 27.89790475 C210.98294321 29.94325187 210.93672037 31.98848373 210.88829762 34.03370798 C210.85765575 35.4023918 210.83135876 36.77117991 210.8094402 38.14003122 C210.77604225 40.08826465 210.72164164 42.03610308 210.66649586 43.98384225 C210.64031178 45.1231318 210.6141277 46.26242136 210.58715016 47.43623483 C210.15477711 50.276811 210.15477711 50.276811 209.15443379 51.93011701 C205.9436117 54.09248562 202.46978322 53.69198404 198.72789723 53.66449106 C197.857654 53.6698766 196.98741077 53.67526213 196.09079653 53.68081087 C193.16341346 53.69516289 190.23647796 53.68796895 187.30907398 53.68086374 C185.21499983 53.68656348 183.12092879 53.69352619 181.02686268 53.70166147 C175.33069501 53.7196507 169.63468089 53.71841379 163.93849331 53.71271908 C159.1891519 53.70963587 154.43984035 53.71570991 149.69050318 53.72175783 C138.49025558 53.73582008 127.29008422 53.73422733 116.0898357 53.72285593 C104.5205311 53.71136967 92.95145816 53.72545515 81.38218409 53.7522524 C71.46112308 53.7743748 61.54013497 53.7810547 51.61905104 53.77517599 C45.68831197 53.77179732 39.75772148 53.77428183 33.82700306 53.79142702 C28.25212505 53.80683924 22.67759159 53.80300439 17.10272747 53.78412187 C15.05281285 53.78042024 13.00287302 53.78358992 10.95298153 53.79400766 C8.16213679 53.80711177 5.3724507 53.79576477 2.58165699 53.77801645 C1.76366989 53.78762145 0.94568279 53.79722646 0.10290819 53.80712253 C-5.35885052 53.73527657 -5.35885052 53.73527657 -7.85088676 51.38622701 C-9.01900148 48.90815162 -9.18708317 47.274707 -9.12574047 44.5399946 C-9.11194851 43.60577676 -9.09815655 42.67155893 -9.08394665 41.70903146 C-9.05286312 40.70788309 -9.02177959 39.70673471 -8.98975414 38.6752485 C-8.9680566 37.64243753 -8.94635906 36.60962656 -8.92400402 35.54551828 C-8.87476923 33.36494974 -8.81796968 31.18454074 -8.75415844 29.00435007 C-8.6578962 25.65783615 -8.58859424 22.31155103 -8.52295727 18.964311 C-8.47181976 16.84708433 -8.4191383 14.72989427 -8.36475414 12.6127485 C-8.34379177 11.60755167 -8.3228294 10.60235483 -8.3012318 9.56669748 C-8.27167904 8.63878397 -8.24212627 7.71087045 -8.21167797 6.75483835 C-8.18930568 5.93639444 -8.1669334 5.11795053 -8.14388317 4.27470529 C-7.43016127 -0.49975253 -4.03974002 0.0348483 0 0 Z " fill="#20221F" transform="translate(169.84522289037704,133.723188996315)"/>
<path d="M0 0 C0.81506516 -0.00554901 1.63013031 -0.01109802 2.46989441 -0.01681519 C5.16143764 -0.02861701 7.85129941 -0.0043342 10.54272461 0.02148438 C12.41312076 0.02319524 14.28351931 0.02313004 16.15391541 0.0213623 C20.07224491 0.02301578 23.99000243 0.04172047 27.90820312 0.07324219 C32.93457682 0.11294739 37.96020214 0.11728452 42.98670292 0.10977936 C46.84800594 0.10671246 50.70914019 0.11881971 54.57040215 0.13591003 C56.42398457 0.14294833 58.27758612 0.14606356 60.13118172 0.1452179 C62.71931785 0.14701234 65.30655094 0.16836222 67.89453125 0.1953125 C68.66292328 0.1923819 69.43131531 0.18945129 70.22299194 0.18643188 C75.40924178 0.26990964 75.40924178 0.26990964 77.57893467 1.85285187 C79.25165446 4.11420191 79.25965553 5.40915618 79.26351929 8.20776367 C79.27197876 9.14993744 79.28043823 10.09211121 79.28915405 11.06283569 C79.28308136 12.09461945 79.27700867 13.1264032 79.27075195 14.18945312 C79.27600891 15.27747223 79.28126587 16.36549133 79.28668213 17.48648071 C79.29991326 21.09204355 79.29113274 24.69716685 79.28100586 28.30273438 C79.28302569 30.80232834 79.28593637 33.30192173 79.28970337 35.80151367 C79.29413095 41.0438284 79.28796664 46.28602825 79.27368164 51.52832031 C79.25735477 57.58995187 79.26264322 63.65128071 79.27916086 69.71290493 C79.29441195 75.54298302 79.29280187 81.37294598 79.28401566 87.20303345 C79.28201037 89.6846216 79.28448436 92.16621745 79.29145432 94.64779663 C79.29904909 98.11241297 79.28749165 101.57644309 79.27075195 105.04101562 C79.27682465 106.07279938 79.28289734 107.10458313 79.28915405 108.16763306 C79.28069458 109.10980682 79.27223511 110.05198059 79.26351929 111.02270508 C79.26238821 111.84196976 79.26125713 112.66123444 79.26009178 113.50532532 C78.78605235 116.15464461 78.03926411 117.03804073 75.88256836 118.61523438 C73.20899659 118.91129651 70.76818179 119.02512509 68.09399414 119.00341797 C67.30179474 119.00867493 66.50959534 119.01393188 65.69338989 119.01934814 C63.07135366 119.03256482 60.44992342 119.02380267 57.82788086 119.01367188 C56.00568526 119.01569254 54.18349044 119.01860391 52.36129761 119.02236938 C48.53969636 119.02679533 44.71830534 119.02035452 40.89672852 119.00634766 C36.00171678 118.98927983 31.10719937 118.99907994 26.21220589 119.01706505 C22.44778738 119.02791631 18.68348563 119.02444996 14.91906357 119.01668167 C13.11457129 119.01468212 11.31006838 119.01713035 9.50558853 119.02412033 C6.98008503 119.03175421 4.4553761 119.02010276 1.92993164 119.00341797 C1.1858606 119.00949066 0.44178955 119.01556335 -0.3248291 119.02182007 C-4.75268276 118.96772998 -7.59784454 118.35076718 -11.11743164 115.61523438 C-12.28409489 113.28190788 -12.25050551 111.907991 -12.26460266 109.30827332 C-12.27175797 108.40402115 -12.27891327 107.49976898 -12.2862854 106.56811523 C-12.2889743 105.57328125 -12.29166321 104.57844727 -12.29443359 103.5534668 C-12.30100479 102.50782059 -12.30757599 101.46217438 -12.31434631 100.38484192 C-12.33410888 96.91346166 -12.34574802 93.44212469 -12.35571289 89.97070312 C-12.35978842 88.7872613 -12.36386395 87.60381947 -12.36806297 86.38451576 C-12.38893553 80.12182412 -12.40323259 73.85915447 -12.41259766 67.59643555 C-12.42366939 61.11967603 -12.45807511 54.64325939 -12.49776936 48.16662121 C-12.52388238 43.19354095 -12.53228474 38.22054307 -12.53587914 33.24740028 C-12.5407582 30.85954788 -12.55240945 28.47169947 -12.57091713 26.0839138 C-12.59519664 22.74405925 -12.59436373 19.40510085 -12.58740234 16.06518555 C-12.6002124 15.07642426 -12.61302246 14.08766296 -12.6262207 13.06893921 C-12.59500389 8.96572814 -12.41507641 6.22433072 -10.59539795 2.50056458 C-7.16264462 -0.11120359 -4.14565686 -0.07174735 0 0 Z " fill="#1D1F1C" transform="translate(301.117431640625,211.384765625)"/>
<path d="M0 0 C0.858847 -0.00241442 1.717694 -0.00482883 2.60256666 -0.00731641 C5.48531975 -0.01295985 8.36785189 -0.0042854 11.25059509 0.00431824 C13.31525737 0.00324552 15.37991935 0.001307 17.44458008 -0.00143433 C23.05596559 -0.0062872 28.66727174 0.00137837 34.27864766 0.01151872 C40.14425014 0.0202913 46.00985007 0.01854193 51.87545776 0.01815796 C61.72545198 0.01909491 71.57541541 0.02778346 81.42539978 0.04142761 C92.82366653 0.05715781 104.22189956 0.06242558 115.62017637 0.06169206 C126.57334173 0.06108231 137.52649608 0.06618265 148.47965813 0.07448387 C153.14666772 0.07802005 157.81367341 0.0798476 162.48068428 0.08037758 C167.97257031 0.08138006 173.4644279 0.08746893 178.95630455 0.09754372 C180.97558035 0.10047137 182.99485943 0.10169355 185.01413727 0.10111618 C187.76295471 0.10062752 190.51169177 0.10626111 193.26049805 0.11352539 C194.46894626 0.11120249 194.46894626 0.11120249 195.70180756 0.10883266 C198.92083483 0.12295416 201.49031884 0.2217587 204.5667572 1.24723816 C206.90844484 4.75976962 207.06299398 6.11193172 206.5667572 10.24723816 C205.09329224 12.90133667 205.09329224 12.90133667 202.5667572 15.24723816 C199.45403883 15.75410888 196.88185884 15.93873774 193.76719666 15.90666199 C192.43133263 15.92238754 192.43133263 15.92238754 191.06848145 15.93843079 C188.10531832 15.96734024 185.1433188 15.96085224 182.18003845 15.95426941 C180.08677757 15.96741862 177.99352928 15.98273256 175.90029907 16.00009155 C170.35108417 16.04011252 164.80219548 16.05013138 159.25285339 16.05412292 C153.77209118 16.06324546 148.29154405 16.10081651 142.81089783 16.13591003 C131.05727744 16.20560707 119.30383259 16.23060331 107.55002975 16.24332809 C104.68439363 16.24708398 101.81877079 16.25286042 98.95314026 16.25959778 C75.62170398 16.31444328 52.29674452 16.19595932 28.96739197 15.87492371 C24.82895886 15.8181594 20.69046829 15.76862285 16.55192661 15.72052097 C13.30840373 15.68180108 10.06495035 15.63870267 6.82150078 15.59429741 C5.29086715 15.57401567 3.76021217 15.55528059 2.22953987 15.53816414 C0.13164769 15.51422683 -1.96607003 15.48420826 -4.06385803 15.45256042 C-5.84360268 15.429244 -5.84360268 15.429244 -7.65930176 15.40545654 C-10.4332428 15.24723816 -10.4332428 15.24723816 -12.4332428 14.24723816 C-12.4332428 10.28723816 -12.4332428 6.32723816 -12.4332428 2.24723816 C-8.0161244 0.03867896 -4.78832167 -0.03065595 0 0 Z " fill="#1C1D1B" transform="translate(174.43324279785156,348.7527618408203)"/>
<path d="M0 0 C0.86362656 -0.00708481 1.72725311 -0.01416962 2.61705017 -0.02146912 C3.56670151 -0.0189917 4.51635284 -0.01651428 5.49478149 -0.01396179 C6.49326614 -0.01907272 7.49175079 -0.02418365 8.52049255 -0.02944946 C11.83441089 -0.04339505 15.14812239 -0.0423848 18.46206665 -0.04008484 C20.75891193 -0.04396936 23.05575648 -0.04830352 25.3526001 -0.05307007 C30.17296677 -0.06054321 34.99326022 -0.06023332 39.81362915 -0.05497742 C45.99674615 -0.04918484 52.17956341 -0.06610359 58.36263084 -0.08932209 C63.10835529 -0.10404172 67.85400729 -0.10493347 72.59975052 -0.10181236 C74.87955951 -0.10232658 77.15937246 -0.10758305 79.43915939 -0.11762428 C82.62586779 -0.12993533 85.81198903 -0.12322852 88.99868774 -0.11161804 C89.94429062 -0.11926178 90.88989349 -0.12690552 91.864151 -0.13478088 C98.21667569 -0.08352087 98.21667569 -0.08352087 101.44268799 1.60037231 C103.54583945 4.03640746 103.68228631 6.09459669 103.87612915 9.26069641 C103.68862915 11.51069641 103.68862915 11.51069641 102.87612915 13.26069641 C100.00603184 15.02362427 97.78396068 15.52126947 94.44204712 15.57954407 C93.12030739 15.60932594 93.12030739 15.60932594 91.77186584 15.63970947 C90.81369461 15.65127579 89.85552338 15.6628421 88.86831665 15.67475891 C87.85427261 15.69426102 86.84022858 15.71376312 85.79545593 15.7338562 C82.4474322 15.79486287 79.09940764 15.84099582 75.75112915 15.88569641 C73.43024323 15.92232398 71.10936109 15.95919219 68.78848267 15.99629211 C61.48456706 16.10649487 54.18051218 16.18864584 46.87612915 16.26069641 C45.66612244 16.27272095 44.45611572 16.28474548 43.20944214 16.2971344 C36.18245424 16.36351684 29.15564913 16.41157197 22.12838745 16.43592834 C19.92113992 16.44409747 17.71390126 16.45519898 15.50668335 16.46925354 C12.43053202 16.48690545 9.3546684 16.49114912 6.2784729 16.49116516 C5.36525772 16.49830032 4.45204254 16.50543549 3.51115417 16.51278687 C2.67632004 16.50976059 1.8414859 16.50673431 0.98135376 16.50361633 C0.25661362 16.50504135 -0.46812653 16.50646637 -1.21482849 16.50793457 C-3.12387085 16.26069641 -3.12387085 16.26069641 -6.12387085 14.26069641 C-6.4871521 11.51069641 -6.4871521 11.51069641 -6.43637085 8.26069641 C-6.43250366 7.18819641 -6.42863647 6.11569641 -6.4246521 5.01069641 C-5.93265455 0.51243312 -4.10850857 0.01120801 0 0 Z " fill="#2F302D" transform="translate(168.12387084960938,280.7393035888672)"/>
<path d="M0 0 C0.88334518 -0.00281982 1.76669037 -0.00563965 2.67680359 -0.00854492 C3.64829849 -0.00652069 4.6197934 -0.00449646 5.62072754 -0.00241089 C6.64193192 -0.00416321 7.66313629 -0.00591553 8.71528625 -0.00772095 C12.10370565 -0.01213587 15.4920732 -0.00920272 18.88049316 -0.00582886 C21.2269695 -0.006502 23.57344578 -0.00747211 25.91992188 -0.00872803 C30.84282087 -0.01020451 35.76570174 -0.00805201 40.68859863 -0.00338745 C47.01081535 0.0023098 53.33298962 -0.00096947 59.65520477 -0.00695992 C64.50205813 -0.01056685 69.34890135 -0.00942633 74.195755 -0.00683212 C76.52745061 -0.00616322 78.85914713 -0.00699 81.19084167 -0.00931168 C84.44483896 -0.01184034 87.69876671 -0.00799452 90.95275879 -0.00241089 C92.41000114 -0.00544724 92.41000114 -0.00544724 93.89668274 -0.00854492 C94.78002792 -0.0057251 95.66337311 -0.00290527 96.57348633 0 C97.34335121 0.00037703 98.11321609 0.00075405 98.90641022 0.0011425 C100.78674316 0.12698364 100.78674316 0.12698364 102.78674316 1.12698364 C102.86788422 2.89706078 102.92599821 4.66820462 102.97424316 6.43948364 C103.0264502 7.91868286 103.0264502 7.91868286 103.07971191 9.42776489 C102.78674316 12.12698364 102.78674316 12.12698364 101.53369045 13.77145481 C99.36783852 15.45202913 98.26235016 15.50587086 95.5426178 15.5146637 C94.24511597 15.52952065 94.24511597 15.52952065 92.92140198 15.54467773 C91.97534592 15.54017609 91.02928986 15.53567444 90.05456543 15.53103638 C88.55661942 15.54133125 88.55661942 15.54133125 87.02841187 15.55183411 C83.71984734 15.57016946 80.41175396 15.56625489 77.10314941 15.56057739 C74.80773259 15.56513602 72.51231714 15.57044063 70.21690369 15.57646179 C65.40248068 15.5854062 60.58822344 15.58295465 55.77380371 15.57302856 C49.59846327 15.56153852 43.4236946 15.58174468 37.2484293 15.6109457 C32.50697686 15.62927579 27.76566224 15.62902156 23.02418327 15.62330818 C20.74716324 15.62315457 18.4701341 15.62923164 16.19314766 15.64159966 C13.01117019 15.65644686 9.83025911 15.64587804 6.64831543 15.62869263 C5.7042836 15.6383606 4.76025177 15.64802856 3.78761292 15.6579895 C-2.55404969 15.58612586 -2.55404969 15.58612586 -5.81007385 13.31828308 C-7.82295472 10.1748408 -7.54546206 7.78124111 -7.21325684 4.12698364 C-6.88325684 3.13698364 -6.55325684 2.14698364 -6.21325684 1.12698364 C-3.89714347 -0.03107304 -2.57755028 0.0012623 0 0 Z " fill="#2F302D" transform="translate(168.2132568359375,212.87301635742188)"/>
<path d="M0 0 C0.87348587 -0.00426498 1.74697174 -0.00852997 2.64692688 -0.01292419 C3.6075 -0.01247101 4.56807312 -0.01201782 5.55775452 -0.0115509 C6.56759903 -0.01490952 7.57744354 -0.01826813 8.6178894 -0.02172852 C11.96903195 -0.03125774 15.32012464 -0.03318258 18.67127991 -0.03425598 C20.99294048 -0.03746706 23.31460085 -0.04083101 25.63626099 -0.04434204 C30.5078834 -0.05033816 35.37948805 -0.05218143 40.25111389 -0.05158997 C46.50376197 -0.05148829 52.75629663 -0.06514451 59.00891781 -0.08236217 C63.80520148 -0.09346204 68.60145756 -0.0955098 73.39775276 -0.09498024 C75.703506 -0.09616325 78.00925988 -0.10060286 80.31500053 -0.10831261 C83.53532306 -0.1180724 86.75539703 -0.11525036 89.97572327 -0.10920715 C90.93427216 -0.11482666 91.89282104 -0.12044617 92.88041687 -0.12623596 C93.75672256 -0.12204147 94.63302826 -0.11784698 95.53588867 -0.11352539 C96.29745742 -0.11407016 97.05902617 -0.11461493 97.84367275 -0.1151762 C99.83143616 0.13371277 99.83143616 0.13371277 102.83143616 2.13371277 C103.67045842 5.97923145 104.0850414 8.37289703 102.83143616 12.13371277 C98.35170025 15.94276825 93.72400723 15.55282563 88.14759827 15.50602722 C87.17793625 15.50967789 86.20827423 15.51332855 85.20922852 15.51708984 C82.0089 15.52518586 78.80907926 15.5115938 75.60877991 15.49699402 C73.38348389 15.49647534 71.15818741 15.49699334 68.93289185 15.49850464 C64.27164358 15.49841496 59.61056843 15.48799347 54.94935608 15.46989441 C48.97151147 15.44719438 42.99391952 15.44666605 37.01604366 15.45341206 C32.42215729 15.45675155 27.82832863 15.45012249 23.2344532 15.44028282 C21.03001266 15.43643121 18.8255657 15.43528245 16.62112236 15.43686867 C13.54258333 15.43723906 10.46436971 15.42462657 7.38587952 15.40837097 C6.47304199 15.41084839 5.56020447 15.41332581 4.6197052 15.4158783 C3.78001694 15.40879349 2.94032867 15.40170868 2.07519531 15.39440918 C1.34794219 15.39235631 0.62068907 15.39030344 -0.12860203 15.38818836 C-2.16856384 15.13371277 -2.16856384 15.13371277 -6.16856384 13.13371277 C-6.16856384 9.17371277 -6.16856384 5.21371277 -6.16856384 1.13371277 C-3.86499246 -0.01807292 -2.56228015 0.00564113 0 0 Z " fill="#31322F" transform="translate(168.16856384277344,247.8662872314453)"/>
<path d="M0 0 C0.86362656 -0.00708481 1.72725311 -0.01416962 2.61705017 -0.02146912 C3.56670151 -0.0189917 4.51635284 -0.01651428 5.49478149 -0.01396179 C6.49326614 -0.01907272 7.49175079 -0.02418365 8.52049255 -0.02944946 C11.83441089 -0.04339505 15.14812239 -0.0423848 18.46206665 -0.04008484 C20.75891193 -0.04396936 23.05575648 -0.04830352 25.3526001 -0.05307007 C30.17296677 -0.06054321 34.99326022 -0.06023332 39.81362915 -0.05497742 C45.99674615 -0.04918484 52.17956341 -0.06610359 58.36263084 -0.08932209 C63.10835529 -0.10404172 67.85400729 -0.10493347 72.59975052 -0.10181236 C74.87955951 -0.10232658 77.15937246 -0.10758305 79.43915939 -0.11762428 C82.62586779 -0.12993533 85.81198903 -0.12322852 88.99868774 -0.11161804 C89.94429062 -0.11926178 90.88989349 -0.12690552 91.864151 -0.13478088 C98.23047216 -0.08340955 98.23047216 -0.08340955 101.46905518 1.64260864 C103.36251666 3.8200257 103.29099311 5.10429309 103.12612915 7.94819641 C103.0900354 8.7564386 103.05394165 9.56468079 103.01675415 10.39741516 C102.9703479 11.01229797 102.92394165 11.62718079 102.87612915 12.26069641 C102.21612915 12.26069641 101.55612915 12.26069641 100.87612915 12.26069641 C100.87612915 12.92069641 100.87612915 13.58069641 100.87612915 14.26069641 C98.1335997 15.17487289 96.5240441 15.38800037 93.70120239 15.39440918 C92.42677528 15.40080666 92.42677528 15.40080666 91.12660217 15.40733337 C89.73321373 15.40665359 89.73321373 15.40665359 88.31167603 15.40596008 C87.3309462 15.4093187 86.35021637 15.41267731 85.33976746 15.4161377 C82.09145855 15.42565232 78.84320114 15.42759094 75.59487915 15.42866516 C73.34190855 15.43187691 71.08893817 15.43524092 68.83596802 15.43875122 C64.11155717 15.44474344 59.38716462 15.44659098 54.66275024 15.44599915 C48.599579 15.44589741 42.53652457 15.45956109 36.47338104 15.47677135 C31.82035784 15.48787085 27.16736309 15.489919 22.514328 15.48938942 C20.27835181 15.49057219 18.04237495 15.49501052 15.80641174 15.50272179 C12.68438441 15.51248218 9.56261343 15.50965948 6.44058228 15.50361633 C5.51165665 15.50923584 4.58273102 15.51485535 3.62565613 15.52064514 C2.77603806 15.51645065 1.92641998 15.51225616 1.05105591 15.50793457 C0.31290901 15.50847934 -0.42523788 15.50902411 -1.18575287 15.50958538 C-3.12387085 15.26069641 -3.12387085 15.26069641 -6.12387085 13.26069641 C-6.4871521 10.72944641 -6.4871521 10.72944641 -6.43637085 7.76069641 C-6.43250366 6.78100891 -6.42863647 5.80132141 -6.4246521 4.79194641 C-5.90618166 0.42871469 -3.94581892 0.01076419 0 0 Z " fill="#2F312E" transform="translate(168.12387084960938,314.7393035888672)"/>
<path d="M0 0 C0.88830505 0.00946152 1.77661011 0.01892303 2.6918335 0.02867126 C5.61923159 0.06226868 8.54619909 0.11040606 11.47338867 0.15869141 C13.50647364 0.1848668 15.5395705 0.21013315 17.57267761 0.23452759 C22.91737951 0.3010974 28.26183061 0.38000799 33.60632324 0.46148682 C39.06256502 0.54248598 44.51895368 0.61181688 49.9753418 0.68212891 C60.67668972 0.82174892 71.37780899 0.97440622 82.07885742 1.13525391 C82.07885742 1.46525391 82.07885742 1.79525391 82.07885742 2.13525391 C80.93071564 2.14556137 79.78257385 2.15586884 78.59963989 2.16648865 C67.79855808 2.26409176 56.99753557 2.36681322 46.19655037 2.47459316 C40.64317973 2.52984286 35.08980384 2.58326614 29.53637695 2.63256836 C24.18065569 2.68018171 18.8249999 2.73252341 13.46935654 2.78819466 C11.42236834 2.80863196 9.37536219 2.82734273 7.32834244 2.84432793 C4.46923555 2.86834151 1.61025314 2.8984002 -1.2487793 2.92993164 C-2.52839539 2.93856483 -2.52839539 2.93856483 -3.8338623 2.94737244 C-8.01132765 2.89070312 -8.01132765 2.89070312 -11.92114258 4.13525391 C-12.25114258 4.79525391 -12.58114258 5.45525391 -12.92114258 6.13525391 C-13.91114258 6.13525391 -14.90114258 6.13525391 -15.92114258 6.13525391 C-14.97364423 3.55116751 -14.33582927 2.3655656 -11.89668274 1.01089478 C-7.86708321 -0.1749343 -4.176281 -0.08293636 0 0 Z " fill="#626360" transform="translate(141.921142578125,84.86474609375)"/>
<path d="M0 0 C1.46373047 0.02707031 1.46373047 0.02707031 2.95703125 0.0546875 C3.69308594 0.07789062 4.42914063 0.10109375 5.1875 0.125 C5.1875 0.455 5.1875 0.785 5.1875 1.125 C4.34445313 1.25777344 3.50140625 1.39054687 2.6328125 1.52734375 C1.53710938 1.70394531 0.44140625 1.88054687 -0.6875 2.0625 C-1.77804688 2.23652344 -2.86859375 2.41054687 -3.9921875 2.58984375 C-6.75071546 2.98051159 -6.75071546 2.98051159 -8.8125 4.125 C-9.1425 4.785 -9.4725 5.445 -9.8125 6.125 C-10.8025 6.125 -11.7925 6.125 -12.8125 6.125 C-11.8158435 3.40684591 -11.21902113 2.33112339 -8.59375 1 C-5.56215713 0.04624045 -3.16803227 -0.07633813 0 0 Z " fill="#A3A4A2" transform="translate(138.8125,84.875)"/>
<path d="M0 0 C2.59487555 1.29743778 3.02269781 2.29362471 4 5 C3.625 7.75 3.625 7.75 3 10 C2.34 10 1.68 10 1 10 C-0.85064319 6.87703962 -1.29356154 4.62059232 -1 1 C-0.67 0.67 -0.34 0.34 0 0 Z " fill="#2E2F2C" transform="translate(163,350)"/>
<path d="M0 0 C1.65 0 3.3 0 5 0 C5 0.66 5 1.32 5 2 C6.65 2.33 8.3 2.66 10 3 C10 3.33 10 3.66 10 4 C2.25 4.125 2.25 4.125 0 3 C0 2.01 0 1.02 0 0 Z " fill="#313230" transform="translate(162,292)"/>
<path d="M0 0 C0.99 0 1.98 0 3 0 C3 1.98 3 3.96 3 6 C1.35 6.33 -0.3 6.66 -2 7 C-2.33 6.01 -2.66 5.02 -3 4 C-2.34 3.67 -1.68 3.34 -1 3 C-0.67 2.01 -0.34 1.02 0 0 Z " fill="#2F302D" transform="translate(268,321)"/>
<path d="M0 0 C0.66 1.32 1.32 2.64 2 4 C2.33 3.34 2.66 2.68 3 2 C3.99 2.66 4.98 3.32 6 4 C1.49646738 5.75747614 -2.17639811 6.19294408 -7 6 C-7 5.67 -7 5.34 -7 5 C-5.35 4.67 -3.7 4.34 -2 4 C-2.33 3.34 -2.66 2.68 -3 2 C-2.01 1.34 -1.02 0.68 0 0 Z " fill="#696B68" transform="translate(383,409)"/>
<path d="M0 0 C1.67542976 0.28604898 3.34385343 0.61781233 5 1 C4.01 1.495 4.01 1.495 3 2 C2.34444881 4.52733235 2.34444881 4.52733235 2 7 C1.34 7 0.68 7 0 7 C-0.38133299 5.0085944 -0.71325582 3.00720923 -1 1 C-0.67 0.67 -0.34 0.34 0 0 Z " fill="#2D2F2C" transform="translate(163,282)"/>
<path d="M0 0 C2.475 0.495 2.475 0.495 5 1 C4.01 1.495 4.01 1.495 3 2 C3 3.98 3 5.96 3 8 C0.4345406 5.4345406 0.45953913 3.52313332 0 0 Z " fill="#313330" transform="translate(162,249)"/>
<path d="M0 0 C1.32 0.33 2.64 0.66 4 1 C3.34 1.66 2.68 2.32 2 3 C2.33 3.66 2.66 4.32 3 5 C2.34 5.66 1.68 6.32 1 7 C0.01 7 -0.98 7 -2 7 C-1.34 4.69 -0.68 2.38 0 0 Z " fill="#151613" transform="translate(164,214)"/>
</svg>
