<?xml version="1.0" encoding="UTF-8"?>
<svg version="1.1" xmlns="http://www.w3.org/2000/svg" width="500" height="500">
<path d="M0 0 C1.56640625 1.16796875 1.56640625 1.16796875 2.56640625 4.16796875 C3.22640625 4.16796875 3.88640625 4.16796875 4.56640625 4.16796875 C4.56640625 4.82796875 4.56640625 5.48796875 4.56640625 6.16796875 C5.22640625 6.16796875 5.88640625 6.16796875 6.56640625 6.16796875 C6.56640625 6.82796875 6.56640625 7.48796875 6.56640625 8.16796875 C7.22640625 8.16796875 7.88640625 8.16796875 8.56640625 8.16796875 C8.56640625 8.82796875 8.56640625 9.48796875 8.56640625 10.16796875 C9.22640625 10.16796875 9.88640625 10.16796875 10.56640625 10.16796875 C10.56640625 10.82796875 10.56640625 11.48796875 10.56640625 12.16796875 C11.22640625 12.16796875 11.88640625 12.16796875 12.56640625 12.16796875 C12.56640625 12.82796875 12.56640625 13.48796875 12.56640625 14.16796875 C13.20578125 14.43609375 13.84515625 14.70421875 14.50390625 14.98046875 C16.56640625 16.16796875 16.56640625 16.16796875 17.56640625 19.16796875 C18.22640625 19.16796875 18.88640625 19.16796875 19.56640625 19.16796875 C19.56640625 19.82796875 19.56640625 20.48796875 19.56640625 21.16796875 C20.22640625 21.16796875 20.88640625 21.16796875 21.56640625 21.16796875 C21.56640625 21.82796875 21.56640625 22.48796875 21.56640625 23.16796875 C22.22640625 23.16796875 22.88640625 23.16796875 23.56640625 23.16796875 C23.56640625 23.82796875 23.56640625 24.48796875 23.56640625 25.16796875 C24.22640625 25.16796875 24.88640625 25.16796875 25.56640625 25.16796875 C25.56640625 25.82796875 25.56640625 26.48796875 25.56640625 27.16796875 C26.22640625 27.16796875 26.88640625 27.16796875 27.56640625 27.16796875 C27.56640625 27.82796875 27.56640625 28.48796875 27.56640625 29.16796875 C28.20578125 29.43609375 28.84515625 29.70421875 29.50390625 29.98046875 C31.56640625 31.16796875 31.56640625 31.16796875 32.56640625 34.16796875 C33.22640625 34.16796875 33.88640625 34.16796875 34.56640625 34.16796875 C34.56640625 34.82796875 34.56640625 35.48796875 34.56640625 36.16796875 C35.22640625 36.16796875 35.88640625 36.16796875 36.56640625 36.16796875 C36.56640625 36.82796875 36.56640625 37.48796875 36.56640625 38.16796875 C37.22640625 38.16796875 37.88640625 38.16796875 38.56640625 38.16796875 C38.56640625 38.82796875 38.56640625 39.48796875 38.56640625 40.16796875 C39.22640625 40.16796875 39.88640625 40.16796875 40.56640625 40.16796875 C40.56640625 40.82796875 40.56640625 41.48796875 40.56640625 42.16796875 C41.20578125 42.43609375 41.84515625 42.70421875 42.50390625 42.98046875 C44.56640625 44.16796875 44.56640625 44.16796875 45.56640625 47.16796875 C46.22640625 47.16796875 46.88640625 47.16796875 47.56640625 47.16796875 C47.56640625 47.82796875 47.56640625 48.48796875 47.56640625 49.16796875 C48.22640625 49.16796875 48.88640625 49.16796875 49.56640625 49.16796875 C49.56640625 49.82796875 49.56640625 50.48796875 49.56640625 51.16796875 C50.22640625 51.16796875 50.88640625 51.16796875 51.56640625 51.16796875 C51.56640625 51.82796875 51.56640625 52.48796875 51.56640625 53.16796875 C52.22640625 53.16796875 52.88640625 53.16796875 53.56640625 53.16796875 C53.56640625 53.82796875 53.56640625 54.48796875 53.56640625 55.16796875 C54.22640625 55.16796875 54.88640625 55.16796875 55.56640625 55.16796875 C55.56640625 55.82796875 55.56640625 56.48796875 55.56640625 57.16796875 C56.20578125 57.43609375 56.84515625 57.70421875 57.50390625 57.98046875 C59.56640625 59.16796875 59.56640625 59.16796875 60.56640625 62.16796875 C61.22640625 62.16796875 61.88640625 62.16796875 62.56640625 62.16796875 C62.56640625 62.82796875 62.56640625 63.48796875 62.56640625 64.16796875 C63.22640625 64.16796875 63.88640625 64.16796875 64.56640625 64.16796875 C64.56640625 64.82796875 64.56640625 65.48796875 64.56640625 66.16796875 C65.22640625 66.16796875 65.88640625 66.16796875 66.56640625 66.16796875 C66.56640625 66.82796875 66.56640625 67.48796875 66.56640625 68.16796875 C67.16453125 68.43609375 67.76265625 68.70421875 68.37890625 68.98046875 C70.56488479 70.16714281 71.97973219 71.26395988 73.56640625 73.16796875 C73.56640625 73.82796875 73.56640625 74.48796875 73.56640625 75.16796875 C74.88640625 75.82796875 76.20640625 76.48796875 77.56640625 77.16796875 C77.56640625 77.82796875 77.56640625 78.48796875 77.56640625 79.16796875 C78.12328125 79.39484375 78.68015625 79.62171875 79.25390625 79.85546875 C82.22800213 81.54346911 84.2864949 83.63473392 86.56640625 86.16796875 C86.56640625 86.82796875 86.56640625 87.48796875 86.56640625 88.16796875 C87.22640625 88.16796875 87.88640625 88.16796875 88.56640625 88.16796875 C88.56640625 88.82796875 88.56640625 89.48796875 88.56640625 90.16796875 C89.22640625 90.16796875 89.88640625 90.16796875 90.56640625 90.16796875 C90.56640625 90.82796875 90.56640625 91.48796875 90.56640625 92.16796875 C91.22640625 92.16796875 91.88640625 92.16796875 92.56640625 92.16796875 C92.56640625 92.82796875 92.56640625 93.48796875 92.56640625 94.16796875 C93.22640625 94.16796875 93.88640625 94.16796875 94.56640625 94.16796875 C94.56640625 94.82796875 94.56640625 95.48796875 94.56640625 96.16796875 C95.22640625 96.16796875 95.88640625 96.16796875 96.56640625 96.16796875 C96.56640625 96.82796875 96.56640625 97.48796875 96.56640625 98.16796875 C97.1621344 98.43903442 97.75786255 98.7101001 98.37164307 98.98937988 C100.53668294 100.15200732 101.95126995 101.29948463 103.68261719 103.02539062 C104.26291687 103.59938599 104.84321655 104.17338135 105.44110107 104.76477051 C106.05479553 105.38251343 106.66848999 106.00025635 107.30078125 106.63671875 C107.93880676 107.27283081 108.57683228 107.90894287 109.23419189 108.56433105 C110.57802199 109.90680262 111.91933954 111.25179336 113.25830078 112.59912109 C115.3158309 114.6673904 117.38384674 116.72474203 119.453125 118.78125 C120.7571525 120.08659846 122.06055981 121.39256685 123.36328125 122.69921875 C123.98507263 123.31696167 124.60686401 123.93470459 125.24749756 124.57116699 C129.56640625 128.93803802 129.56640625 128.93803802 129.56640625 131.16796875 C130.22640625 131.16796875 130.88640625 131.16796875 131.56640625 131.16796875 C131.56640625 131.82796875 131.56640625 132.48796875 131.56640625 133.16796875 C132.22640625 133.16796875 132.88640625 133.16796875 133.56640625 133.16796875 C133.56640625 133.82796875 133.56640625 134.48796875 133.56640625 135.16796875 C134.22640625 135.16796875 134.88640625 135.16796875 135.56640625 135.16796875 C135.56640625 135.82796875 135.56640625 136.48796875 135.56640625 137.16796875 C136.22640625 137.16796875 136.88640625 137.16796875 137.56640625 137.16796875 C137.56640625 137.82796875 137.56640625 138.48796875 137.56640625 139.16796875 C138.14390625 139.37421875 138.72140625 139.58046875 139.31640625 139.79296875 C142.58111834 141.78807059 143.83055247 143.75825597 145.56640625 147.16796875 C146.26056208 151.50072165 146.07020932 155.00922169 144.31640625 159.04296875 C141.93607681 161.93336879 139.96377681 163.91201474 136.19921875 164.6015625 C128.98393063 164.61280127 125.54130428 163.09456776 120.31079102 157.94897461 C119.50955811 157.14339111 118.7083252 156.33780762 117.8828125 155.5078125 C117.07400635 154.69562256 116.2652002 153.88343262 115.43188477 153.04663086 C114.81627686 152.42667236 114.20066895 151.80671387 113.56640625 151.16796875 C113.56282372 152.16326772 113.56282372 152.16326772 113.55916882 153.17867374 C113.49998562 169.33754982 113.42441439 185.49625817 113.33069134 201.65496922 C113.28576077 209.46926587 113.24633983 217.28351723 113.2199707 225.09790039 C113.19696839 231.91037452 113.16354552 238.72270498 113.11770469 245.53506511 C113.09380243 249.14086109 113.0750541 252.74651504 113.06879234 256.35238838 C113.06159976 260.38169688 113.03113902 264.41051225 112.9987793 268.43969727 C113.00021439 269.63012634 113.00164948 270.82055542 113.00312805 272.04705811 C112.92576392 278.8557538 112.6944621 284.53486221 108.06640625 289.91015625 C102.58865987 294.04699597 98.53969599 294.31659387 91.86946106 294.31513977 C90.52038533 294.3206548 90.52038533 294.3206548 89.14405555 294.32628125 C86.11792259 294.33733056 83.09182395 294.34116405 80.06567383 294.3449707 C77.90089814 294.35123442 75.73612353 294.35788113 73.5713501 294.36488342 C67.68068633 294.38230177 61.79003069 294.39284751 55.89934754 294.40108895 C52.21991665 294.40623744 48.54048829 294.41231324 44.86105919 294.41860008 C33.35153117 294.43765465 21.84200957 294.45188512 10.33246881 294.46021205 C-2.95799627 294.46998587 -16.24826063 294.49630814 -29.53866881 294.53671294 C-39.80798522 294.56686291 -50.07725389 294.58167988 -60.34661371 294.58499306 C-66.48153426 294.58734484 -72.61627701 294.59632211 -78.75115013 294.62145424 C-84.52381802 294.64472015 -90.29619083 294.64897397 -96.06889343 294.63869286 C-98.18605849 294.63819703 -100.30323799 294.64453125 -102.42035866 294.6582489 C-105.31450255 294.67594983 -108.20758548 294.6688702 -111.10173035 294.65571594 C-111.93628083 294.66668519 -112.77083131 294.67765443 -113.6306712 294.68895608 C-119.34493621 294.62640608 -123.63558069 293.32250437 -128.43359375 290.16796875 C-132.00434301 286.36684858 -132.55796862 282.88700665 -132.59181213 277.79597473 C-132.60160095 276.6811824 -132.61138977 275.56639008 -132.62147522 274.41781616 C-132.63010841 272.58254868 -132.63010841 272.58254868 -132.63891602 270.71020508 C-132.64881561 269.42229568 -132.65871521 268.13438629 -132.66891479 266.80744934 C-132.69595874 263.27470167 -132.71697106 259.74194066 -132.73691678 256.20914674 C-132.75877948 252.51755478 -132.78616678 248.82600396 -132.81297302 245.13444519 C-132.86289607 238.14345566 -132.90783634 231.15244329 -132.95099539 224.16140908 C-133.00037108 216.20257628 -133.05528798 208.24378475 -133.11067498 200.28499186 C-133.22448907 183.91268887 -133.33132936 167.54034804 -133.43359375 151.16796875 C-134.21734375 151.99296875 -135.00109375 152.81796875 -135.80859375 153.66796875 C-138.43359375 156.16796875 -138.43359375 156.16796875 -140.43359375 156.16796875 C-140.43359375 156.82796875 -140.43359375 157.48796875 -140.43359375 158.16796875 C-141.09359375 158.16796875 -141.75359375 158.16796875 -142.43359375 158.16796875 C-142.43359375 158.82796875 -142.43359375 159.48796875 -142.43359375 160.16796875 C-146.9544823 164.32229877 -150.80833461 164.7892422 -156.87109375 164.55859375 C-161.23347841 163.89359609 -163.19701572 161.81673946 -165.74609375 158.41796875 C-166.79059189 154.9996112 -167.16573741 151.65495807 -166.43359375 148.16796875 C-163.77745359 143.80305789 -160.78823685 140.27654912 -157.17585754 136.67645264 C-156.65861781 136.15820962 -156.14137808 135.63996661 -155.60846442 135.10601926 C-153.88666869 133.38327643 -152.15785363 131.66776065 -150.42895508 129.95214844 C-149.18818674 128.71358288 -147.94786721 127.47456759 -146.70796204 126.23513794 C-144.04373279 123.57383564 -141.37638537 120.91571323 -138.70655251 118.26003265 C-134.48767365 114.06345043 -130.27592243 109.85976332 -126.06510925 105.65509033 C-119.40848022 99.0098298 -112.74719189 92.36926252 -106.08385247 85.73073125 C-94.13813829 73.82940814 -82.1980677 61.92242925 -70.26315325 50.01027608 C-66.07288531 45.82843099 -61.87982563 41.64941087 -57.68452227 37.47261763 C-55.08154551 34.88025535 -52.48057525 32.28588689 -49.88010979 29.69100571 C-48.67038175 28.48475878 -47.45978242 27.27938496 -46.24826813 26.0749321 C-44.60001707 24.43608042 -42.95482924 22.79421442 -41.31037903 21.15155029 C-40.38732877 20.23201946 -39.46427851 19.31248863 -38.51325703 18.36509323 C-36.40289634 16.34829307 -36.40289634 16.34829307 -35.43359375 14.16796875 C-34.77359375 14.16796875 -34.11359375 14.16796875 -33.43359375 14.16796875 C-33.43359375 13.50796875 -33.43359375 12.84796875 -33.43359375 12.16796875 C-32.77359375 12.16796875 -32.11359375 12.16796875 -31.43359375 12.16796875 C-31.43359375 11.50796875 -31.43359375 10.84796875 -31.43359375 10.16796875 C-30.77359375 10.16796875 -30.11359375 10.16796875 -29.43359375 10.16796875 C-29.43359375 9.50796875 -29.43359375 8.84796875 -29.43359375 8.16796875 C-28.77359375 8.16796875 -28.11359375 8.16796875 -27.43359375 8.16796875 C-27.43359375 7.50796875 -27.43359375 6.84796875 -27.43359375 6.16796875 C-19.20935817 -2.48482501 -10.96949538 -5.60281467 0 0 Z M-13.92871094 31.25149536 C-18.25700068 35.08502626 -22.82676018 38.45185364 -27.51171875 41.83154297 C-39.97386768 50.99850572 -51.85089888 60.79881822 -63.43359375 71.04296875 C-63.95699136 71.50414518 -64.48038898 71.96532161 -65.01964712 72.44047308 C-92.31691835 96.57675836 -110.61760851 119.98891297 -113.0545845 157.33943939 C-113.88530735 172.32757124 -113.68925495 187.24197353 -112.99609375 202.23046875 C-112.95866562 203.05918834 -112.92123749 203.88790792 -112.88267517 204.74174023 C-111.8882301 226.32095091 -109.97999841 247.71610515 -107.43359375 269.16796875 C-90.93359375 269.16796875 -74.43359375 269.16796875 -57.43359375 269.16796875 C-57.39492187 259.09394531 -57.39492187 259.09394531 -57.35546875 248.81640625 C-57.33030012 244.55985771 -57.30396708 240.30338021 -57.2734375 236.046875 C-57.22509822 229.29182673 -57.18105517 222.5369429 -57.16259766 215.78173828 C-57.14744567 210.33506516 -57.11302553 204.88882241 -57.06528473 199.44234085 C-57.05045597 197.36518725 -57.04255188 195.2879722 -57.0417099 193.21076584 C-57.03934304 190.29938713 -57.01228545 187.38920046 -56.97949219 184.47802734 C-56.98703773 183.19193069 -56.98703773 183.19193069 -56.99473572 181.87985229 C-56.90221637 176.56536438 -56.18029133 173.23836154 -52.43359375 169.16796875 C-48.06807514 167.05192221 -44.05816348 166.91109405 -39.25415039 166.89331055 C-38.5622612 166.88819962 -37.87037201 166.88308868 -37.15751648 166.87782288 C-34.88617129 166.86400181 -32.61513207 166.86487786 -30.34375 166.8671875 C-28.7548359 166.8632966 -27.16592284 166.85896112 -25.57701111 166.85420227 C-22.25255964 166.84675628 -18.9282144 166.84701965 -15.60375977 166.85229492 C-11.35585154 166.85808905 -7.10837941 166.8411523 -2.86054325 166.81795025 C0.41926084 166.80317752 3.69896072 166.80234598 6.97879219 166.80545998 C8.54439724 166.8049486 10.11000841 166.79974542 11.67558098 166.78964806 C13.86986046 166.77723093 16.06330105 166.78410577 18.25756836 166.7956543 C19.50299911 166.79502487 20.74842987 166.79439545 22.03160095 166.79374695 C26.83208839 167.30196364 30.94064982 168.54221232 34.44140625 172.04296875 C37.07338275 177.01447992 36.73340842 182.51382012 36.77172852 187.99731445 C36.78162811 188.87586594 36.79152771 189.75441742 36.80172729 190.65959167 C36.83323426 193.554284 36.85805692 196.44899272 36.8828125 199.34375 C36.90339136 201.35443033 36.92438808 203.36510642 36.94578552 205.3757782 C37.00090993 210.66110803 37.05036162 215.94647628 37.09863281 221.23187256 C37.15776346 227.57709189 37.22393835 233.92224119 37.2889328 240.26740265 C37.38682111 249.90088182 37.47576012 259.53440645 37.56640625 269.16796875 C53.73640625 269.16796875 69.90640625 269.16796875 86.56640625 269.16796875 C87.17972005 250.72836595 87.67533509 232.29720896 87.96533489 213.8499403 C88.10366366 205.281363 88.29228454 196.7197043 88.60327148 188.15551758 C92.23141541 147.61145411 92.23141541 147.61145411 78.68093967 111.4760828 C73.78034216 106.35474635 68.24517166 102.25135436 62.13166809 98.69624329 C59.56640625 97.16796875 59.56640625 97.16796875 58.56640625 95.16796875 C57.90640625 95.16796875 57.24640625 95.16796875 56.56640625 95.16796875 C56.56640625 94.50796875 56.56640625 93.84796875 56.56640625 93.16796875 C55.90640625 93.16796875 55.24640625 93.16796875 54.56640625 93.16796875 C54.56640625 92.50796875 54.56640625 91.84796875 54.56640625 91.16796875 C53.90640625 91.16796875 53.24640625 91.16796875 52.56640625 91.16796875 C52.56640625 90.50796875 52.56640625 89.84796875 52.56640625 89.16796875 C51.90640625 89.16796875 51.24640625 89.16796875 50.56640625 89.16796875 C50.56640625 88.50796875 50.56640625 87.84796875 50.56640625 87.16796875 C49.90640625 87.16796875 49.24640625 87.16796875 48.56640625 87.16796875 C48.56640625 86.50796875 48.56640625 85.84796875 48.56640625 85.16796875 C47.17307772 83.7566693 47.17307772 83.7566693 45.29663086 82.26928711 C40.08866368 77.83670887 35.30346866 73.01842723 30.49133492 68.16806221 C28.85041141 66.5142188 27.20624686 64.86365726 25.56126404 63.21385193 C22.08096364 59.72221999 18.60466465 56.22662127 15.12890625 52.73046875 C11.07471039 48.65266727 7.0188886 44.57650991 2.95887566 40.50449944 C1.33646582 38.875593 -0.28291524 37.24371547 -1.90220642 35.61170959 C-2.88705047 34.6232367 -3.87203312 33.63490187 -4.85717773 32.64672852 C-5.71907211 31.77959732 -6.58096649 30.91246613 -7.46897888 30.01905823 C-10.62825895 27.04233735 -10.98133116 28.57398924 -13.92871094 31.25149536 Z M-32.43359375 191.16796875 C-32.43359375 216.90796875 -32.43359375 242.64796875 -32.43359375 269.16796875 C-17.58359375 269.16796875 -2.73359375 269.16796875 12.56640625 269.16796875 C12.56640625 243.42796875 12.56640625 217.68796875 12.56640625 191.16796875 C-2.28359375 191.16796875 -17.13359375 191.16796875 -32.43359375 191.16796875 Z " fill="#444D53" transform="translate(260.43359375,95.83203125)"/>
<path d="M0 0 C1.32 0 2.64 0 4 0 C2.39626852 4.00517396 -0.42113986 6.6771098 -3.4453125 9.640625 C-3.97518768 10.16767029 -4.50506287 10.69471558 -5.05099487 11.23773193 C-6.73767825 12.91325675 -8.43119564 14.58167722 -10.125 16.25 C-11.27259388 17.38755851 -12.41973461 18.52557436 -13.56640625 19.6640625 C-16.37238137 22.44803465 -19.18450464 25.2256576 -22 28 C-22.33 27.01 -22.66 26.02 -23 25 C-22.34 25 -21.68 25 -21 25 C-20.67 22.69 -20.34 20.38 -20 18 C-18.35 18 -16.7 18 -15 18 C-15 17.34 -15 16.68 -15 16 C-14.34 16 -13.68 16 -13 16 C-12.87625 15.21625 -12.7525 14.4325 -12.625 13.625 C-12 11 -12 11 -10 9 C-9.34 9 -8.68 9 -8 9 C-6.31267956 7.72943475 -6.31267956 7.72943475 -5 6 C-5 5.01 -5 4.02 -5 3 C-4.01 2.34 -3.02 1.68 -2 1 C-1.34 1.33 -0.68 1.66 0 2 C0 1.34 0 0.68 0 0 Z " fill="#53595E" transform="translate(193,175)"/>
<path d="M0 0 C0.33 0 0.66 0 1 0 C1.17692478 9.5964106 1.34288303 19.19292948 1.49477577 28.78976917 C1.56564888 33.24578455 1.64032298 37.70166912 1.72363281 42.1574707 C1.80386626 46.45616781 1.87418173 50.75492245 1.93757248 55.05389977 C1.96353068 56.69543134 1.99308496 58.33691004 2.02626419 59.97831154 C2.0720662 62.27432401 2.10517072 64.57019044 2.13525391 66.86645508 C2.16856308 68.8283654 2.16856308 68.8283654 2.20254517 70.82991028 C2 74 2 74 0 77 C-1.00320891 72.87274961 -1.08855881 69.06300879 -1.02172852 64.82299805 C-1.01212097 64.12001083 -1.00251343 63.41702362 -0.99261475 62.69273376 C-0.95978356 60.38228838 -0.91939156 58.07204161 -0.87890625 55.76171875 C-0.85458958 54.15461414 -0.8307468 52.54750229 -0.80735779 50.94038391 C-0.74467073 46.72024261 -0.67556092 42.50023016 -0.60510254 38.2802124 C-0.53427981 33.97007084 -0.46954639 29.65983827 -0.40429688 25.34960938 C-0.27548289 16.89963877 -0.13988192 8.4497946 0 0 Z " fill="#3A4148" transform="translate(226,289)"/>
<path d="M0 0 C1.32 0 2.64 0 4 0 C2.38989473 4.07376031 -0.53822271 6.76507069 -3.625 9.75 C-4.140625 10.25660156 -4.65625 10.76320312 -5.1875 11.28515625 C-6.45383339 12.52803902 -7.7263144 13.76465276 -9 15 C-9.33 14.01 -9.66 13.02 -10 12 C-9.34 12 -8.68 12 -8 12 C-7.67 9.69 -7.34 7.38 -7 5 C-5.35 5 -3.7 5 -2 5 C-2 4.34 -2 3.68 -2 3 C-1.34 3 -0.68 3 0 3 C0 2.01 0 1.02 0 0 Z " fill="#565C62" transform="translate(180,188)"/>
<path d="M0 0 C0.33 1.32 0.66 2.64 1 4 C0.195625 4.268125 -0.60875 4.53625 -1.4375 4.8125 C-2.283125 5.204375 -3.12875 5.59625 -4 6 C-4.33 6.99 -4.66 7.98 -5 9 C-7.31 9.33 -9.62 9.66 -12 10 C-11.06409496 8.8944811 -10.12620142 7.79064547 -9.1875 6.6875 C-8.66542969 6.07261719 -8.14335937 5.45773438 -7.60546875 4.82421875 C-7.07566406 4.22222656 -6.54585937 3.62023437 -6 3 C-5.50113281 2.42894531 -5.00226563 1.85789063 -4.48828125 1.26953125 C-3 0 -3 0 0 0 Z " fill="#575E62" transform="translate(185,154)"/>
<path d="M0 0 C0.66 0.33 1.32 0.66 2 1 C0.72921341 6.46438233 -1.39806715 8.84181079 -6 12 C-8.875 12.8125 -8.875 12.8125 -11 13 C-10.21654285 11.82780457 -9.42297164 10.66236332 -8.625 9.5 C-8.18414062 8.8503125 -7.74328125 8.200625 -7.2890625 7.53125 C-6.86367187 7.0259375 -6.43828125 6.520625 -6 6 C-5.34 6 -4.68 6 -4 6 C-4 5.34 -4 4.68 -4 4 C-3.34 4 -2.68 4 -2 4 C-2 3.34 -2 2.68 -2 2 C-1.34 2 -0.68 2 0 2 C0 1.34 0 0.68 0 0 Z " fill="#6C7175" transform="translate(231,104)"/>
<path d="M0 0 C1.98 0.66 3.96 1.32 6 2 C6.33 1.34 6.66 0.68 7 0 C7.66 0.99 8.32 1.98 9 3 C7.4221875 3.37125 7.4221875 3.37125 5.8125 3.75 C2.1866459 4.76700786 -0.19910772 6.45373429 -3 9 C-3.66 8.67 -4.32 8.34 -5 8 C-5 7.34 -5 6.68 -5 6 C-4.01 6 -3.02 6 -2 6 C-1.34 4.02 -0.68 2.04 0 0 Z " fill="#5A5F64" transform="translate(246,121)"/>
<path d="M0 0 C0.66 0.66 1.32 1.32 2 2 C1.625 4.125 1.625 4.125 1 6 C0.34 6 -0.32 6 -1 6 C-1 6.66 -1 7.32 -1 8 C-2.98 8 -4.96 8 -7 8 C-6.02133662 6.85373678 -5.04205413 5.70800212 -4.0625 4.5625 C-3.51722656 3.92441406 -2.97195312 3.28632813 -2.41015625 2.62890625 C-1.63204305 1.73008851 -0.84063472 0.84063472 0 0 Z " fill="#5A5F65" transform="translate(114,222)"/>
<path d="M0 0 C0.99 0.33 1.98 0.66 3 1 C1.84826645 3.46800047 0.95216435 5.04783565 -1 7 C-1.66 7 -2.32 7 -3 7 C-4.33783393 7.31478446 -5.67203709 7.64587656 -7 8 C-6.02133662 6.85373678 -5.04205413 5.70800212 -4.0625 4.5625 C-3.51722656 3.92441406 -2.97195312 3.28632813 -2.41015625 2.62890625 C-1.63204305 1.73008851 -0.84063472 0.84063472 0 0 Z " fill="#64686E" transform="translate(149,187)"/>
<path d="M0 0 C0.66 1.32 1.32 2.64 2 4 C1.01 4.33 0.02 4.66 -1 5 C-1.3721042 6.32303717 -1.70630173 7.65737935 -2 9 C-2.99 9.495 -2.99 9.495 -4 10 C-4.66 8.35 -5.32 6.7 -6 5 C-4.02 3.35 -2.04 1.7 0 0 Z " fill="#5D6368" transform="translate(239,97)"/>
<path d="M0 0 C3.25543229 0.34879632 4.01873107 1.02133261 6.25 3.5625 C6.8275 4.366875 7.405 5.17125 8 6 C7.34 6 6.68 6 6 6 C6 7.32 6 8.64 6 10 C5.01 9.67 4.02 9.34 3 9 C3 7.02 3 5.04 3 3 C2.34 3 1.68 3 1 3 C0.67 2.01 0.34 1.02 0 0 Z " fill="#5E6367" transform="translate(358,196)"/>
<path d="M0 0 C0.99 0.33 1.98 0.66 3 1 C1.65117186 5.04648443 -0.34826069 5.95502599 -4 8 C-4.99 7.67 -5.98 7.34 -7 7 C-4.69 4.69 -2.38 2.38 0 0 Z " fill="#5C6167" transform="translate(198,138)"/>
<path d="M0 0 C1.32 0 2.64 0 4 0 C2.4169423 4.2742558 -0.50568404 6.26531794 -4 9 C-4.33 7.68 -4.66 6.36 -5 5 C-4.360625 4.731875 -3.72125 4.46375 -3.0625 4.1875 C-0.66868314 3.11332248 -0.66868314 3.11332248 0 0 Z " fill="#5C6268" transform="translate(164,204)"/>
<path d="M0 0 C1.32 0 2.64 0 4 0 C3 3 3 3 0 5 C-2.69921875 5.1953125 -2.69921875 5.1953125 -5.6875 5.125 C-7.17830078 5.09792969 -7.17830078 5.09792969 -8.69921875 5.0703125 C-9.45847656 5.04710937 -10.21773438 5.02390625 -11 5 C-11 4.67 -11 4.34 -11 4 C-10.37351562 3.96261719 -9.74703125 3.92523438 -9.1015625 3.88671875 C-8.28429687 3.82097656 -7.46703125 3.75523437 -6.625 3.6875 C-5.81289062 3.62949219 -5.00078125 3.57148438 -4.1640625 3.51171875 C-1.62078662 3.17009472 -1.62078662 3.17009472 0 0 Z " fill="#787B83" transform="translate(112,255)"/>
<path d="M0 0 C0.99 0.33 1.98 0.66 3 1 C1.84826645 3.46800047 0.95216435 5.04783565 -1 7 C-2.32 6.34 -3.64 5.68 -5 5 C-3.35 3.35 -1.7 1.7 0 0 Z " fill="#60666B" transform="translate(163,173)"/>
<path d="M0 0 C0 3.69418201 -1.28179295 5.77836178 -3 9 C-4.65 9 -6.3 9 -8 9 C-7.04270084 7.87411986 -6.08412105 6.7493285 -5.125 5.625 C-4.59132812 4.99851563 -4.05765625 4.37203125 -3.5078125 3.7265625 C-2.38567993 2.44163349 -1.20628025 1.20628025 0 0 Z " fill="#676D72" transform="translate(211,125)"/>
<path d="M0 0 C0.33 0.66 0.66 1.32 1 2 C1.66 2 2.32 2 3 2 C3 2.66 3 3.32 3 4 C3.99 4.33 4.98 4.66 6 5 C2.25 8 2.25 8 0 8 C-1.125 2.25 -1.125 2.25 0 0 Z " fill="#575C62" transform="translate(395,231)"/>
<path d="M0 0 C0.33 1.32 0.66 2.64 1 4 C0.360625 4.103125 -0.27875 4.20625 -0.9375 4.3125 C-1.618125 4.539375 -2.29875 4.76625 -3 5 C-3.33 5.99 -3.66 6.98 -4 8 C-4.99 7.67 -5.98 7.34 -7 7 C-4.69 4.69 -2.38 2.38 0 0 Z " fill="#73787E" transform="translate(141,195)"/>
<path d="M0 0 C0.99 0.33 1.98 0.66 3 1 C2.67 1.99 2.34 2.98 2 4 C1.34 4 0.68 4 0 4 C-0.33 4.66 -0.66 5.32 -1 6 C-2.32 5.67 -3.64 5.34 -5 5 C-3.35 3.35 -1.7 1.7 0 0 Z " fill="#686D71" transform="translate(190,146)"/>
<path d="M0 0 C0 0.99 0 1.98 0 3 C-1.96466413 4.06775224 -3.96855359 5.06553465 -6 6 C-6.66 5.67 -7.32 5.34 -8 5 C-3.375 0 -3.375 0 0 0 Z " fill="#5B6066" transform="translate(220,119)"/>
<path d="M0 0 C-2 2 -4 4 -6 6 C-6.33 5.01 -6.66 4.02 -7 3 C-7.66 2.67 -8.32 2.34 -9 2 C-5.86501708 0.14223235 -3.62528568 -0.20140476 0 0 Z " fill="#4A5157" transform="translate(227,116)"/>
<path d="M0 0 C0.33 0.66 0.66 1.32 1 2 C0.0625 4.625 0.0625 4.625 -1 7 C-2.65 7 -4.3 7 -6 7 C-4.02 4.69 -2.04 2.38 0 0 Z " fill="#6F767B" transform="translate(129,207)"/>
<path d="M0 0 C1.32 0 2.64 0 4 0 C2.60667426 3.36720387 1.0210714 4.9859524 -2 7 C-2 6.01 -2 5.02 -2 4 C-1.34 4 -0.68 4 0 4 C0 2.68 0 1.36 0 0 Z " fill="#5F6569" transform="translate(172,196)"/>
<path d="M0 0 C0.66 0.99 1.32 1.98 2 3 C0.75 4.5625 0.75 4.5625 -1 6 C-3.1875 5.6875 -3.1875 5.6875 -5 5 C-3.35 3.35 -1.7 1.7 0 0 Z " fill="#6D7275" transform="translate(157,179)"/>
<path d="M0 0 C1.65 1.65 3.3 3.3 5 5 C3 6 3 6 0.9375 5.75 C0.298125 5.5025 -0.34125 5.255 -1 5 C-1.33 4.01 -1.66 3.02 -2 2 C-1.34 1.34 -0.68 0.68 0 0 Z " fill="#3C444B" transform="translate(234,103)"/>
<path d="M0 0 C0.99 0 1.98 0 3 0 C4.75 1.8125 4.75 1.8125 6 4 C5.67 4.99 5.34 5.98 5 7 C3.29115995 5.37660195 1.62553283 3.70680947 0 2 C0 1.34 0 0.68 0 0 Z " fill="#65696F" transform="translate(257,129)"/>
<path d="M0 0 C0.99 0 1.98 0 3 0 C2.67 1.32 2.34 2.64 2 4 C0.35 4 -1.3 4 -3 4 C-1.6875 2 -1.6875 2 0 0 Z " fill="#5F676B" transform="translate(176,160)"/>
<path d="M0 0 C2.46800047 1.15173355 4.04783565 2.04783565 6 4 C5.67 4.99 5.34 5.98 5 7 C3.29115995 5.37660195 1.62553283 3.70680947 0 2 C0 1.34 0 0.68 0 0 Z " fill="#686B72" transform="translate(281,153)"/>
<path d="M0 0 C1.32 0 2.64 0 4 0 C3.34 1.32 2.68 2.64 2 4 C1.01 4 0.02 4 -1 4 C-0.67 2.68 -0.34 1.36 0 0 Z " fill="#565C60" transform="translate(236,132)"/>
</svg>
