<?xml version="1.0" encoding="UTF-8"?>
<svg version="1.1" xmlns="http://www.w3.org/2000/svg" width="500" height="500">
<path d="M0 0 C1.90845703 0.18755859 1.90845703 0.18755859 3.85546875 0.37890625 C33.06317522 3.79519225 57.25602713 15.0192859 81 32 C81.99 32.66 82.98 33.32 84 34 C84 34.66 84 35.32 84 36 C84.58426758 36.25974609 85.16853516 36.51949219 85.77050781 36.78710938 C88.15561164 38.084656 89.75190637 39.49341122 91.671875 41.40625 C92.33574219 42.06753906 92.99960937 42.72882813 93.68359375 43.41015625 C94.36550781 44.09980469 95.04742187 44.78945312 95.75 45.5 C96.79607422 46.53447266 96.79607422 46.53447266 97.86328125 47.58984375 C98.52199219 48.25113281 99.18070312 48.91242188 99.859375 49.59375 C100.76381348 50.50157227 100.76381348 50.50157227 101.68652344 51.42773438 C103 53 103 53 103 55 C103.66 55 104.32 55 105 55 C106.2890625 56.4609375 106.2890625 56.4609375 107.625 58.375 C108.07101562 59.00148437 108.51703125 59.62796875 108.9765625 60.2734375 C110 62 110 62 110 64 C110.66 64 111.32 64 112 64 C113.66377443 66.51239064 115.19334929 69.01343602 116.6875 71.625 C117.13303223 72.39537598 117.57856445 73.16575195 118.03759766 73.95947266 C138.31969155 109.36373228 145.20717144 151.23049846 134.734375 191.15307617 C126.52653417 220.45580078 109.27520419 252.0096291 84 270 C83.34 270 82.68 270 82 270 C82 270.66 82 271.32 82 272 C80.35 272.66 78.7 273.32 77 274 C77 274.66 77 275.32 77 276 C75.49389648 277.12573242 75.49389648 277.12573242 73.37109375 278.35546875 C72.20090698 279.036698 72.20090698 279.036698 71.00708008 279.73168945 C70.15911865 280.21210693 69.31115723 280.69252441 68.4375 281.1875 C67.13945435 281.92842896 67.13945435 281.92842896 65.81518555 282.68432617 C27.92629133 304.05549083 -14.33370031 311.70709382 -56.76269531 299.94799805 C-65.55663669 297.38789268 -73.85460178 294.22079726 -82 290 C-83.07507813 289.45472656 -84.15015625 288.90945313 -85.2578125 288.34765625 C-92.85870236 284.38549026 -99.96197216 279.88352952 -107 275 C-107.76054687 274.48953125 -108.52109375 273.9790625 -109.3046875 273.453125 C-110.90919495 272.35767815 -112.46269636 271.18791645 -114 270 C-114 269.34 -114 268.68 -114 268 C-114.66 268 -115.32 268 -116 268 C-116 267.34 -116 266.68 -116 266 C-116.61875 265.690625 -117.2375 265.38125 -117.875 265.0625 C-119.25 264.375 -120.625 263.6875 -122 263 C-122 262.34 -122 261.68 -122 261 C-122.66 261 -123.32 261 -124 261 C-125.5078125 259.25 -125.5078125 259.25 -127.125 257 C-127.93324219 255.88625 -127.93324219 255.88625 -128.7578125 254.75 C-129.16773438 254.1725 -129.57765625 253.595 -130 253 C-124.61756902 245.83091656 -119.16154632 238.86684977 -113.08203125 232.265625 C-111.1755956 230.19107964 -109.3323439 228.07734069 -107.5 225.9375 C-106.33579324 224.62281754 -105.16905689 223.31037146 -104 222 C-103.07380859 220.92105469 -103.07380859 220.92105469 -102.12890625 219.8203125 C-97.6600825 214.93755233 -92.88315668 211.41025423 -87.1875 208.125 C-86.56045166 207.75576416 -85.93340332 207.38652832 -85.28735352 207.00610352 C-72.7343634 200.11330154 -59.3942804 200.56779801 -45.50390625 200.63671875 C-43.42227682 200.63723855 -41.34064689 200.63671623 -39.25901794 200.63520813 C-34.9127563 200.63529743 -30.56668176 200.64563952 -26.22045898 200.66381836 C-20.68200871 200.68648943 -15.14383154 200.68704742 -9.60534763 200.68030071 C-5.31135176 200.67694016 -1.01741681 200.68363014 3.27656746 200.69342995 C5.3172683 200.6972474 7.35797595 200.6984447 9.39867973 200.6968441 C30.924288 200.69402076 51.77640197 202.33556866 69 217 C69 217.66 69 218.32 69 219 C69.84691406 219.35578125 69.84691406 219.35578125 70.7109375 219.71875 C73.50679624 221.28366752 75.39547728 223.20336791 77.625 225.5 C78.40101563 226.2940625 79.17703125 227.088125 79.9765625 227.90625 C80.64429688 228.5971875 81.31203125 229.288125 82 230 C82.66 230.66 83.32 231.32 84 232 C98.58702857 211.97660199 108.12182231 191.07521149 111.1875 166.3125 C111.31366699 165.29748413 111.31366699 165.29748413 111.44238281 164.26196289 C113.54259008 145.42146719 110.67199289 125.67878357 104 108 C103.63132812 106.97261719 103.26265625 105.94523437 102.8828125 104.88671875 C98.30123237 92.95881187 91.2961702 81.69682231 83 72 C82.30132812 71.18015625 81.60265625 70.3603125 80.8828125 69.515625 C60.19183507 45.88924939 31.110569 30.92104424 0 27 C-34.08668222 24.78983089 -64.86518083 31.99775068 -92.5234375 52.3125 C-95 54 -95 54 -97 54 C-97 54.66 -97 55.32 -97 56 C-98.36328125 57.3046875 -98.36328125 57.3046875 -100.3125 58.875 C-111.1772859 68.20683551 -118.98069693 78.62044568 -126 91 C-126.97453125 92.71509766 -126.97453125 92.71509766 -127.96875 94.46484375 C-143.37086406 123.41136074 -145.52952644 158.56946852 -136.04760742 189.76269531 C-133.56707421 197.52311472 -130.40692841 204.74977414 -126.45239258 211.87524414 C-123.95784281 216.48181793 -123.95784281 216.48181793 -124.1875 219.3046875 C-125.22544124 221.47039183 -126.40010475 223.20811732 -128 225 C-128.66 225 -129.32 225 -130 225 C-130.2475 225.53625 -130.495 226.0725 -130.75 226.625 C-132.30652537 229.5823982 -134.03435673 232.29724051 -136 235 C-136.66 235 -137.32 235 -138 235 C-138 235.66 -138 236.32 -138 237 C-139.98 237.99 -139.98 237.99 -142 239 C-159.81803946 214.70267346 -168.63637845 184.72623753 -168.39111328 154.82275391 C-168.37499812 152.499729 -168.39110347 150.17844261 -168.41015625 147.85546875 C-168.43551087 129.48121891 -165.52460548 110.68972409 -157.46484375 94.03125 C-156.34374026 91.71131319 -155.2848654 89.3909142 -154.25390625 87.03125 C-149.85332234 77.09856806 -144.62280395 68.59349195 -138 60 C-136.95005859 58.58074219 -136.95005859 58.58074219 -135.87890625 57.1328125 C-132.45351628 52.56087828 -132.45351628 52.56087828 -131 51 C-130.34 51 -129.68 51 -129 51 C-129 50.34 -129 49.68 -129 49 C-128.34 49 -127.68 49 -127 49 C-126.731875 48.360625 -126.46375 47.72125 -126.1875 47.0625 C-125 45 -125 45 -122 44 C-122 43.34 -122 42.68 -122 42 C-121.34 42 -120.68 42 -120 42 C-120 41.34 -120 40.68 -120 40 C-119.34 40 -118.68 40 -118 40 C-118 39.34 -118 38.68 -118 38 C-115.95287216 36.22207539 -113.90757439 34.57069603 -111.75 32.9375 C-111.16347656 32.47794922 -110.57695312 32.01839844 -109.97265625 31.54492188 C-107.01166163 29.27926194 -104.64772929 27.7336077 -101 27 C-101 26.34 -101 25.68 -101 25 C-73.97336243 3.80944869 -33.29036547 -3.34715054 0 0 Z " fill="#2B2C29" transform="translate(265,81)"/>
<path d="M0 0 C1.29966202 0.00141495 2.59932404 0.0028299 3.93836975 0.00428772 C7.37258878 0.00808291 10.80676467 0.01788717 14.2409668 0.0289917 C17.75373756 0.0392707 21.26651537 0.04379917 24.77929688 0.04882812 C31.65626758 0.05951249 38.53320984 0.07655237 45.41015625 0.09765625 C47.55943956 9.64524145 43.12836912 18.89139162 38.41015625 27.09765625 C37.42015625 28.58265625 37.42015625 28.58265625 36.41015625 30.09765625 C36.11803222 32.56037277 35.94015447 34.90837792 35.86328125 37.37890625 C35.83863297 38.10079636 35.81398468 38.82268646 35.78858948 39.56645203 C35.72401554 41.91034609 35.68656204 44.25303066 35.66015625 46.59765625 C35.6500351 47.39088287 35.63991394 48.1841095 35.62948608 49.00137329 C35.55621513 62.04178443 37.56496206 71.40131998 45.22509766 82.22021484 C47.18604597 85.32686761 48.24703203 88.62374041 49.41015625 92.09765625 C46.00071961 93.08749269 43.1960558 93.05059953 39.71875 92.625 C38.91107178 92.52823975 38.10339355 92.43147949 37.27124023 92.33178711 C36.65708252 92.25452393 36.0429248 92.17726074 35.41015625 92.09765625 C35.42062988 92.76297363 35.43110352 93.42829102 35.44189453 94.11376953 C35.4836609 97.15002615 35.50954777 100.18622211 35.53515625 103.22265625 C35.55191406 104.269375 35.56867188 105.31609375 35.5859375 106.39453125 C35.65306906 117.00131847 35.65306906 117.00131847 33.41015625 121.09765625 C28.78213393 123.74477293 23.89288729 123.40368308 18.71875 123.3984375 C17.30711327 123.40486519 17.30711327 123.40486519 15.86695862 123.41142273 C13.87575075 123.4171577 11.88452194 123.41767243 9.89331055 123.41333008 C6.88227387 123.41019232 3.87224186 123.43356228 0.86132812 123.45898438 C-11.86738244 123.50134512 -23.62760624 123.32276734 -34.58984375 116.09765625 C-34.58984375 115.43765625 -34.58984375 114.77765625 -34.58984375 114.09765625 C-35.14671875 113.89140625 -35.70359375 113.68515625 -36.27734375 113.47265625 C-39.51485677 111.54764851 -41.27215516 109.05914723 -43.58984375 106.09765625 C-44.45867187 106.48179687 -45.3275 106.8659375 -46.22265625 107.26171875 C-47.37507813 107.74382812 -48.5275 108.2259375 -49.71484375 108.72265625 C-50.85179687 109.20992188 -51.98875 109.6971875 -53.16015625 110.19921875 C-57.15273069 111.24510955 -58.93840563 110.95046313 -62.58984375 109.09765625 C-63.67666882 105.83718105 -63.72328279 103.44047163 -63.73510742 100.0090332 C-63.74148727 98.7537532 -63.74786713 97.49847321 -63.75444031 96.20515442 C-63.75596963 94.8320825 -63.75708325 93.45901007 -63.7578125 92.0859375 C-63.76102732 90.67449408 -63.76439157 89.263051 -63.76789856 87.85160828 C-63.77388821 84.89007801 -63.77573878 81.92857691 -63.77514648 78.96704102 C-63.77504521 75.1889367 -63.78866161 71.4110218 -63.80591869 67.63296223 C-63.81709219 64.71513527 -63.81906401 61.79735321 -63.81853676 58.87950706 C-63.8197102 57.4877781 -63.82409596 56.09604773 -63.83186913 54.70433998 C-63.88628089 43.95024164 -63.72568089 33.93760584 -56.16015625 25.50390625 C-52.75895019 22.31425846 -49.39438163 20.49407102 -45.08984375 18.72265625 C-40.06780774 16.61174551 -37.28016068 14.09577777 -34.02734375 9.76953125 C-32.58984375 8.09765625 -32.58984375 8.09765625 -29.58984375 7.09765625 C-29.58984375 6.43765625 -29.58984375 5.77765625 -29.58984375 5.09765625 C-28.24128413 4.44019521 -26.88560344 3.7973365 -25.52734375 3.16015625 C-24.77324219 2.80050781 -24.01914063 2.44085938 -23.2421875 2.0703125 C-15.81044747 -0.65502368 -7.79687392 -0.03207998 0 0 Z " fill="#2A2B29" transform="translate(252.58984375,137.90234375)"/>
<path d="M0 0 C1.65 0.99 3.3 1.98 5 3 C3.68 5.64 2.36 8.28 1 11 C-0.65 9.35 -2.3 7.7 -4 6 C-2.68 4.02 -1.36 2.04 0 0 Z " fill="#3F3F3D" transform="translate(139,328)"/>
<path d="M0 0 C0.33 0.66 0.66 1.32 1 2 C-1.26737944 4.01544839 -2.57285984 4.94914998 -5.625 5.3125 C-8 5 -8 5 -10 3 C-12.65537372 2.43479997 -15.29144713 2.26211802 -18 2 C-18 1.67 -18 1.34 -18 1 C-16.12528812 0.83012319 -14.25021305 0.66425224 -12.375 0.5 C-11.33085937 0.4071875 -10.28671875 0.314375 -9.2109375 0.21875 C-6.12853212 0.00875645 -3.08834771 -0.03709727 0 0 Z " fill="#484746" transform="translate(253,80)"/>
<path d="M0 0 C0.99 0.99 1.98 1.98 3 3 C2.34 3 1.68 3 1 3 C0.896875 3.61875 0.79375 4.2375 0.6875 4.875 C0 7 0 7 -3 9 C-3.33 8.34 -3.66 7.68 -4 7 C-4.66 6.67 -5.32 6.34 -6 6 C-4.02 4.02 -2.04 2.04 0 0 Z " fill="#4A4C49" transform="translate(150,316)"/>
<path d="M0 0 C0.99 0.33 1.98 0.66 3 1 C2.01 1.495 2.01 1.495 1 2 C0.5359375 2.928125 0.5359375 2.928125 0.0625 3.875 C-1.02905268 6.05810535 -2.20711515 7.37010468 -4 9 C-4 8.34 -4 7.68 -4 7 C-4.66 6.67 -5.32 6.34 -6 6 C-5.67 5.01 -5.34 4.02 -5 3 C-3.35 2.67 -1.7 2.34 0 2 C0 1.34 0 0.68 0 0 Z " fill="#474745" transform="translate(134,304)"/>
<path d="M0 0 C0.99 0 1.98 0 3 0 C3.33 2.31 3.66 4.62 4 7 C3.34 7 2.68 7 2 7 C1.67 7.99 1.34 8.98 1 10 C-0.83691257 6.21812119 -1.15837626 4.05431692 0 0 Z " fill="#3C3D3B" transform="translate(355,154)"/>
<path d="M0 0 C0.33 1.32 0.66 2.64 1 4 C0.01 4.33 -0.98 4.66 -2 5 C-2.70151152 6.3153341 -3.36525925 7.65117592 -4 9 C-5.5 10.75 -5.5 10.75 -7 12 C-7.66 12 -8.32 12 -9 12 C-7.63055898 9.05043472 -6.12169591 6.47531189 -4 4 C-3.34 4 -2.68 4 -2 4 C-2 3.34 -2 2.68 -2 2 C-1.34 2 -0.68 2 0 2 C0 1.34 0 0.68 0 0 Z " fill="#5F5F5D" transform="translate(138,128)"/>
<path d="M0 0 C0.66 0 1.32 0 2 0 C2.33 0.99 2.66 1.98 3 3 C0.1875 5.0625 0.1875 5.0625 -3 7 C-3.99 6.67 -4.98 6.34 -6 6 C-4 4 -2 2 0 0 Z " fill="#484846" transform="translate(332,358)"/>
<path d="M0 0 C0.66 0.33 1.32 0.66 2 1 C0.43370627 4.35634371 -1.38341923 6.38341923 -4 9 C-4.99 9.33 -5.98 9.66 -7 10 C-5.6062718 5.56541027 -3.39417765 3.12621626 0 0 Z " fill="#787775" transform="translate(199,161)"/>
<path d="M0 0 C0.66 0.66 1.32 1.32 2 2 C1.8125 4 1.8125 4 1 6 C0.01 6.66 -0.98 7.32 -2 8 C-2 7.34 -2 6.68 -2 6 C-2.66 5.67 -3.32 5.34 -4 5 C-2.68 3.35 -1.36 1.7 0 0 Z " fill="#3B3B39" transform="translate(155,142)"/>
<path d="M0 0 C0.33 0.99 0.66 1.98 1 3 C-3.75 6 -3.75 6 -6 6 C-5.625 3.5625 -5.625 3.5625 -5 1 C-3 0 -3 0 0 0 Z " fill="#525250" transform="translate(341,354)"/>
<path d="M0 0 C2.6875 -0.3125 2.6875 -0.3125 5 0 C3.02 2.31 1.04 4.62 -1 7 C-1.66 6.34 -2.32 5.68 -3 5 C-1.8125 2.5 -1.8125 2.5 0 0 Z " fill="#595956" transform="translate(357,338)"/>
<path d="M0 0 C0 2.83967231 -0.40267181 5.23735711 -1 8 C-3.31 8.33 -5.62 8.66 -8 9 C-7.04270084 7.87411986 -6.08412105 6.7493285 -5.125 5.625 C-4.59132812 4.99851562 -4.05765625 4.37203125 -3.5078125 3.7265625 C-2.38567993 2.44163349 -1.20628025 1.20628025 0 0 Z " fill="#535350" transform="translate(167,297)"/>
<path d="M0 0 C0.99 0.66 1.98 1.32 3 2 C6.12521833 2.16699232 6.12521833 2.16699232 9 2 C6.59179639 4.40820361 5.34977063 4.68097423 2 5 C-0.3125 4.0625 -0.3125 4.0625 -2 3 C-1.34 2.01 -0.68 1.02 0 0 Z " fill="#61605F" transform="translate(192,244)"/>
<path d="M0 0 C0.99 0.33 1.98 0.66 3 1 C2.19185349 2.33597652 1.37836819 3.668725 0.5625 5 C0.11003906 5.7425 -0.34242188 6.485 -0.80859375 7.25 C-1.20175781 7.8275 -1.59492188 8.405 -2 9 C-2.33 9 -2.66 9 -3 9 C-3.1875 5.625 -3.1875 5.625 -3 2 C-2.01 1.34 -1.02 0.68 0 0 Z " fill="#5C5C5A" transform="translate(142,161)"/>
<path d="M0 0 C2.475 0.99 2.475 0.99 5 2 C3.68 3.65 2.36 5.3 1 7 C0.01 6.67 -0.98 6.34 -2 6 C-1.34 4.02 -0.68 2.04 0 0 Z " fill="#353533" transform="translate(331,104)"/>
<path d="M0 0 C-0.99 0 -1.98 0 -3 0 C-3.33 0.99 -3.66 1.98 -4 3 C-4.99 3.33 -5.98 3.66 -7 4 C-7 3.34 -7 2.68 -7 2 C-7.66 2 -8.32 2 -9 2 C-9.33 2.66 -9.66 3.32 -10 4 C-10.66 3.34 -11.32 2.68 -12 2 C-10.75579353 1.4654744 -9.50429064 0.94791389 -8.25 0.4375 C-7.55390625 0.14746094 -6.8578125 -0.14257812 -6.140625 -0.44140625 C-3.69987216 -1.07831803 -2.3596345 -0.80248831 0 0 Z " fill="#61615E" transform="translate(208,88)"/>
<path d="M0 0 C1.17539996 0.92652701 2.34010577 1.86663387 3.5 2.8125 C4.1496875 3.33457031 4.799375 3.85664063 5.46875 4.39453125 C7 6 7 6 7 9 C6.01 8.67 5.02 8.34 4 8 C3.3125 5.9375 3.3125 5.9375 3 4 C2.34 4 1.68 4 1 4 C0.67 2.68 0.34 1.36 0 0 Z " fill="#555553" transform="translate(335,300)"/>
<path d="M0 0 C2.29013653 3.4352048 2.17842973 4.985331 2 9 C1.67 8.34 1.34 7.68 1 7 C0.34 7 -0.32 7 -1 7 C-1.33 5.35 -1.66 3.7 -2 2 C-1.34 2 -0.68 2 0 2 C0 1.34 0 0.68 0 0 Z " fill="#403D3B" transform="translate(125,261)"/>
<path d="M0 0 C0.66 0.33 1.32 0.66 2 1 C0.84826645 3.46800047 -0.04783565 5.04783565 -2 7 C-2 6.34 -2 5.68 -2 5 C-2.99 4.67 -3.98 4.34 -5 4 C-4.01 3.67 -3.02 3.34 -2 3 C-2 2.34 -2 1.68 -2 1 C-1.34 0.67 -0.68 0.34 0 0 Z " fill="#565654" transform="translate(225,142)"/>
<path d="M0 0 C1.32 0.99 2.64 1.98 4 3 C0.5647952 5.29013653 -0.985331 5.17842973 -5 5 C-3.35 3.35 -1.7 1.7 0 0 Z " fill="#484746" transform="translate(221,378)"/>
<path d="M0 0 C0.66 0.33 1.32 0.66 2 1 C1.75 2.875 1.75 2.875 1 5 C-1.0625 6.25 -1.0625 6.25 -3 7 C-1.125 1.125 -1.125 1.125 0 0 Z " fill="#4D4E4B" transform="translate(361,295)"/>
<path d="M0 0 C3 1 3 1 5 2 C4.67 2.66 4.34 3.32 4 4 C3.01 4.33 2.02 4.66 1 5 C1 4.34 1 3.68 1 3 C0.01 2.67 -0.98 2.34 -2 2 C-1.34 1.34 -0.68 0.68 0 0 Z " fill="#444543" transform="translate(217,249)"/>
<path d="M0 0 C2 2 2 2 2 4 C2.66 4.66 3.32 5.32 4 6 C1 6 1 6 -0.6875 4.625 C-2 3 -2 3 -2 1 C-1.34 0.67 -0.68 0.34 0 0 Z " fill="#575755" transform="translate(341,140)"/>
</svg>
